<?xml version="1.0" encoding="utf-8" standalone="no"?>
<!DOCTYPE svg PUBLIC "-//W3C//DTD SVG 1.1//EN"
  "http://www.w3.org/Graphics/SVG/1.1/DTD/svg11.dtd">
<svg xmlns:xlink="http://www.w3.org/1999/xlink" width="460.8pt" height="345.6pt" viewBox="0 0 460.8 345.6" xmlns="http://www.w3.org/2000/svg" version="1.1">
 <metadata>
  <rdf:RDF xmlns:dc="http://purl.org/dc/elements/1.1/" xmlns:cc="http://creativecommons.org/ns#" xmlns:rdf="http://www.w3.org/1999/02/22-rdf-syntax-ns#">
   <cc:Work>
    <dc:type rdf:resource="http://purl.org/dc/dcmitype/StillImage"/>
    <dc:date>2024-03-07T14:44:36.723083</dc:date>
    <dc:format>image/svg+xml</dc:format>
    <dc:creator>
     <cc:Agent>
      <dc:title>Matplotlib v3.8.3, https://matplotlib.org/</dc:title>
     </cc:Agent>
    </dc:creator>
   </cc:Work>
  </rdf:RDF>
 </metadata>
 <defs>
  <style type="text/css">*{stroke-linejoin: round; stroke-linecap: butt}</style>
 </defs>
 <g id="figure_1">
  <g id="patch_1">
   <path d="M 0 345.6 
L 460.8 345.6 
L 460.8 0 
L 0 0 
z
" style="fill: #ffffff"/>
  </g>
  <g id="axes_1">
   <g id="patch_2">
    <path d="M 57.6 307.584 
L 414.72 307.584 
L 414.72 41.472 
L 57.6 41.472 
z
" style="fill: #ffffff"/>
   </g>
   <g id="PathCollection_1">
    <defs>
     <path id="m41e02b8843" d="M 0 3 
C 0.795609 3 1.55874 2.683901 2.12132 2.12132 
C 2.683901 1.55874 3 0.795609 3 0 
C 3 -0.795609 2.683901 -1.55874 2.12132 -2.12132 
C 1.55874 -2.683901 0.795609 -3 0 -3 
C -0.795609 -3 -1.55874 -2.683901 -2.12132 -2.12132 
C -2.683901 -1.55874 -3 -0.795609 -3 0 
C -3 0.795609 -2.683901 1.55874 -2.12132 2.12132 
C -1.55874 2.683901 -0.795609 3 0 3 
z
" style="stroke: #ffa500"/>
    </defs>
    <g clip-path="url(#pa3f6328123)">
     <use xlink:href="#m41e02b8843" x="73.832727" y="271.597744" style="fill: #ffa500; stroke: #ffa500"/>
     <use xlink:href="#m41e02b8843" x="236.16" y="207.404773" style="fill: #ffa500; stroke: #ffa500"/>
     <use xlink:href="#m41e02b8843" x="317.323636" y="206.193585" style="fill: #ffa500; stroke: #ffa500"/>
     <use xlink:href="#m41e02b8843" x="398.487273" y="231.628536" style="fill: #ffa500; stroke: #ffa500"/>
    </g>
   </g>
   <g id="PathCollection_2">
    <g clip-path="url(#pa3f6328123)">
     <use xlink:href="#m41e02b8843" x="154.996364" y="240.106853" style="fill: #ffa500; stroke: #ffa500"/>
    </g>
   </g>
   <g id="PathCollection_3">
    <path d="M 154.996364 232.82981 
C 156.322379 232.82981 157.594263 232.302978 158.531898 231.365344 
C 159.469532 230.427709 159.996364 229.155825 159.996364 227.82981 
C 159.996364 226.503794 159.469532 225.23191 158.531898 224.294276 
C 157.594263 223.356641 156.322379 222.82981 154.996364 222.82981 
C 153.670348 222.82981 152.398464 223.356641 151.46083 224.294276 
C 150.523195 225.23191 149.996364 226.503794 149.996364 227.82981 
C 149.996364 229.155825 150.523195 230.427709 151.46083 231.365344 
C 152.398464 232.302978 153.670348 232.82981 154.996364 232.82981 
L 154.996364 232.82981 
z
" clip-path="url(#pa3f6328123)" style="fill: none; stroke: #ffa500"/>
   </g>
   <g id="PathCollection_4">
    <defs>
     <path id="mc6321ad254" d="M 0 3 
C 0.795609 3 1.55874 2.683901 2.12132 2.12132 
C 2.683901 1.55874 3 0.795609 3 0 
C 3 -0.795609 2.683901 -1.55874 2.12132 -2.12132 
C 1.55874 -2.683901 0.795609 -3 0 -3 
C -0.795609 -3 -1.55874 -2.683901 -2.12132 -2.12132 
C -2.683901 -1.55874 -3 -0.795609 -3 0 
C -3 0.795609 -2.683901 1.55874 -2.12132 2.12132 
C -1.55874 2.683901 -0.795609 3 0 3 
z
" style="stroke: #000000"/>
    </defs>
    <g clip-path="url(#pa3f6328123)">
     <use xlink:href="#mc6321ad254" x="73.832727" y="242.529229" style="stroke: #000000"/>
     <use xlink:href="#mc6321ad254" x="236.16" y="137.155862" style="stroke: #000000"/>
     <use xlink:href="#mc6321ad254" x="317.323636" y="108.087347" style="stroke: #000000"/>
     <use xlink:href="#mc6321ad254" x="398.487273" y="155.323684" style="stroke: #000000"/>
    </g>
   </g>
   <g id="PathCollection_5">
    <g clip-path="url(#pa3f6328123)">
     <use xlink:href="#mc6321ad254" x="154.996364" y="200.137645" style="stroke: #000000"/>
    </g>
   </g>
   <g id="PathCollection_6">
    <path d="M 154.996364 173.206321 
C 156.322379 173.206321 157.594263 172.67949 158.531898 171.741855 
C 159.469532 170.804221 159.996364 169.532337 159.996364 168.206321 
C 159.996364 166.880306 159.469532 165.608422 158.531898 164.670787 
C 157.594263 163.733153 156.322379 163.206321 154.996364 163.206321 
C 153.670348 163.206321 152.398464 163.733153 151.46083 164.670787 
C 150.523195 165.608422 149.996364 166.880306 149.996364 168.206321 
C 149.996364 169.532337 150.523195 170.804221 151.46083 171.741855 
C 152.398464 172.67949 153.670348 173.206321 154.996364 173.206321 
L 154.996364 173.206321 
z
" clip-path="url(#pa3f6328123)" style="fill: none; stroke: #000000"/>
   </g>
   <g id="PathCollection_7">
    <defs>
     <path id="m227864ecb7" d="M 0 3 
C 0.795609 3 1.55874 2.683901 2.12132 2.12132 
C 2.683901 1.55874 3 0.795609 3 0 
C 3 -0.795609 2.683901 -1.55874 2.12132 -2.12132 
C 1.55874 -2.683901 0.795609 -3 0 -3 
C -0.795609 -3 -1.55874 -2.683901 -2.12132 -2.12132 
C -2.683901 -1.55874 -3 -0.795609 -3 0 
C -3 0.795609 -2.683901 1.55874 -2.12132 2.12132 
C -1.55874 2.683901 -0.795609 3 0 3 
z
" style="stroke: #2ca02c"/>
    </defs>
    <g clip-path="url(#pa3f6328123)">
     <use xlink:href="#m227864ecb7" x="236.16" y="281.287249" style="fill: #2ca02c; stroke: #2ca02c"/>
     <use xlink:href="#m227864ecb7" x="317.323636" y="281.287249" style="fill: #2ca02c; stroke: #2ca02c"/>
     <use xlink:href="#m227864ecb7" x="398.487273" y="286.132002" style="fill: #2ca02c; stroke: #2ca02c"/>
    </g>
   </g>
   <g id="PathCollection_8">
    <g clip-path="url(#pa3f6328123)">
     <use xlink:href="#m227864ecb7" x="154.996364" y="287.34319" style="fill: #2ca02c; stroke: #2ca02c"/>
    </g>
   </g>
   <g id="PathCollection_9">
    <path d="M 154.996364 292.282631 
C 156.322379 292.282631 157.594263 291.755799 158.531898 290.818164 
C 159.469532 289.88053 159.996364 288.608646 159.996364 287.282631 
C 159.996364 285.956615 159.469532 284.684731 158.531898 283.747097 
C 157.594263 282.809462 156.322379 282.282631 154.996364 282.282631 
C 153.670348 282.282631 152.398464 282.809462 151.46083 283.747097 
C 150.523195 284.684731 149.996364 285.956615 149.996364 287.282631 
C 149.996364 288.608646 150.523195 289.88053 151.46083 290.818164 
C 152.398464 291.755799 153.670348 292.282631 154.996364 292.282631 
L 154.996364 292.282631 
z
" clip-path="url(#pa3f6328123)" style="fill: none; stroke: #2ca02c"/>
   </g>
   <g id="matplotlib.axis_1">
    <g id="xtick_1">
     <g id="line2d_1">
      <defs>
       <path id="m57ac63f8e6" d="M 0 0 
L 0 3.5 
" style="stroke: #000000; stroke-width: 0.8"/>
      </defs>
      <g>
       <use xlink:href="#m57ac63f8e6" x="73.832727" y="307.584" style="stroke: #000000; stroke-width: 0.8"/>
      </g>
     </g>
     <g id="text_1">
      <!-- 2019 -->
      <g transform="translate(58.562727 323.702125) scale(0.12 -0.12)">
       <defs>
        <path id="DejaVuSans-32" d="M 1228 531 
L 3431 531 
L 3431 0 
L 469 0 
L 469 531 
Q 828 903 1448 1529 
Q 2069 2156 2228 2338 
Q 2531 2678 2651 2914 
Q 2772 3150 2772 3378 
Q 2772 3750 2511 3984 
Q 2250 4219 1831 4219 
Q 1534 4219 1204 4116 
Q 875 4013 500 3803 
L 500 4441 
Q 881 4594 1212 4672 
Q 1544 4750 1819 4750 
Q 2544 4750 2975 4387 
Q 3406 4025 3406 3419 
Q 3406 3131 3298 2873 
Q 3191 2616 2906 2266 
Q 2828 2175 2409 1742 
Q 1991 1309 1228 531 
z
" transform="scale(0.015625)"/>
        <path id="DejaVuSans-30" d="M 2034 4250 
Q 1547 4250 1301 3770 
Q 1056 3291 1056 2328 
Q 1056 1369 1301 889 
Q 1547 409 2034 409 
Q 2525 409 2770 889 
Q 3016 1369 3016 2328 
Q 3016 3291 2770 3770 
Q 2525 4250 2034 4250 
z
M 2034 4750 
Q 2819 4750 3233 4129 
Q 3647 3509 3647 2328 
Q 3647 1150 3233 529 
Q 2819 -91 2034 -91 
Q 1250 -91 836 529 
Q 422 1150 422 2328 
Q 422 3509 836 4129 
Q 1250 4750 2034 4750 
z
" transform="scale(0.015625)"/>
        <path id="DejaVuSans-31" d="M 794 531 
L 1825 531 
L 1825 4091 
L 703 3866 
L 703 4441 
L 1819 4666 
L 2450 4666 
L 2450 531 
L 3481 531 
L 3481 0 
L 794 0 
L 794 531 
z
" transform="scale(0.015625)"/>
        <path id="DejaVuSans-39" d="M 703 97 
L 703 672 
Q 941 559 1184 500 
Q 1428 441 1663 441 
Q 2288 441 2617 861 
Q 2947 1281 2994 2138 
Q 2813 1869 2534 1725 
Q 2256 1581 1919 1581 
Q 1219 1581 811 2004 
Q 403 2428 403 3163 
Q 403 3881 828 4315 
Q 1253 4750 1959 4750 
Q 2769 4750 3195 4129 
Q 3622 3509 3622 2328 
Q 3622 1225 3098 567 
Q 2575 -91 1691 -91 
Q 1453 -91 1209 -44 
Q 966 3 703 97 
z
M 1959 2075 
Q 2384 2075 2632 2365 
Q 2881 2656 2881 3163 
Q 2881 3666 2632 3958 
Q 2384 4250 1959 4250 
Q 1534 4250 1286 3958 
Q 1038 3666 1038 3163 
Q 1038 2656 1286 2365 
Q 1534 2075 1959 2075 
z
" transform="scale(0.015625)"/>
       </defs>
       <use xlink:href="#DejaVuSans-32"/>
       <use xlink:href="#DejaVuSans-30" x="63.623047"/>
       <use xlink:href="#DejaVuSans-31" x="127.246094"/>
       <use xlink:href="#DejaVuSans-39" x="190.869141"/>
      </g>
     </g>
    </g>
    <g id="xtick_2">
     <g id="line2d_2">
      <g>
       <use xlink:href="#m57ac63f8e6" x="154.996364" y="307.584" style="stroke: #000000; stroke-width: 0.8"/>
      </g>
     </g>
     <g id="text_2">
      <!-- 2020 -->
      <g transform="translate(139.726364 323.702125) scale(0.12 -0.12)">
       <use xlink:href="#DejaVuSans-32"/>
       <use xlink:href="#DejaVuSans-30" x="63.623047"/>
       <use xlink:href="#DejaVuSans-32" x="127.246094"/>
       <use xlink:href="#DejaVuSans-30" x="190.869141"/>
      </g>
     </g>
    </g>
    <g id="xtick_3">
     <g id="line2d_3">
      <g>
       <use xlink:href="#m57ac63f8e6" x="236.16" y="307.584" style="stroke: #000000; stroke-width: 0.8"/>
      </g>
     </g>
     <g id="text_3">
      <!-- 2021 -->
      <g transform="translate(220.89 323.702125) scale(0.12 -0.12)">
       <use xlink:href="#DejaVuSans-32"/>
       <use xlink:href="#DejaVuSans-30" x="63.623047"/>
       <use xlink:href="#DejaVuSans-32" x="127.246094"/>
       <use xlink:href="#DejaVuSans-31" x="190.869141"/>
      </g>
     </g>
    </g>
    <g id="xtick_4">
     <g id="line2d_4">
      <g>
       <use xlink:href="#m57ac63f8e6" x="317.323636" y="307.584" style="stroke: #000000; stroke-width: 0.8"/>
      </g>
     </g>
     <g id="text_4">
      <!-- 2022 -->
      <g transform="translate(302.053636 323.702125) scale(0.12 -0.12)">
       <use xlink:href="#DejaVuSans-32"/>
       <use xlink:href="#DejaVuSans-30" x="63.623047"/>
       <use xlink:href="#DejaVuSans-32" x="127.246094"/>
       <use xlink:href="#DejaVuSans-32" x="190.869141"/>
      </g>
     </g>
    </g>
    <g id="xtick_5">
     <g id="line2d_5">
      <g>
       <use xlink:href="#m57ac63f8e6" x="398.487273" y="307.584" style="stroke: #000000; stroke-width: 0.8"/>
      </g>
     </g>
     <g id="text_5">
      <!-- 2023 -->
      <g transform="translate(383.217273 323.702125) scale(0.12 -0.12)">
       <defs>
        <path id="DejaVuSans-33" d="M 2597 2516 
Q 3050 2419 3304 2112 
Q 3559 1806 3559 1356 
Q 3559 666 3084 287 
Q 2609 -91 1734 -91 
Q 1441 -91 1130 -33 
Q 819 25 488 141 
L 488 750 
Q 750 597 1062 519 
Q 1375 441 1716 441 
Q 2309 441 2620 675 
Q 2931 909 2931 1356 
Q 2931 1769 2642 2001 
Q 2353 2234 1838 2234 
L 1294 2234 
L 1294 2753 
L 1863 2753 
Q 2328 2753 2575 2939 
Q 2822 3125 2822 3475 
Q 2822 3834 2567 4026 
Q 2313 4219 1838 4219 
Q 1578 4219 1281 4162 
Q 984 4106 628 3988 
L 628 4550 
Q 988 4650 1302 4700 
Q 1616 4750 1894 4750 
Q 2613 4750 3031 4423 
Q 3450 4097 3450 3541 
Q 3450 3153 3228 2886 
Q 3006 2619 2597 2516 
z
" transform="scale(0.015625)"/>
       </defs>
       <use xlink:href="#DejaVuSans-32"/>
       <use xlink:href="#DejaVuSans-30" x="63.623047"/>
       <use xlink:href="#DejaVuSans-32" x="127.246094"/>
       <use xlink:href="#DejaVuSans-33" x="190.869141"/>
      </g>
     </g>
    </g>
    <g id="text_6">
     <!-- year -->
     <g transform="translate(220.542344 340.835562) scale(0.14 -0.14)">
      <defs>
       <path id="DejaVuSans-79" d="M 2059 -325 
Q 1816 -950 1584 -1140 
Q 1353 -1331 966 -1331 
L 506 -1331 
L 506 -850 
L 844 -850 
Q 1081 -850 1212 -737 
Q 1344 -625 1503 -206 
L 1606 56 
L 191 3500 
L 800 3500 
L 1894 763 
L 2988 3500 
L 3597 3500 
L 2059 -325 
z
" transform="scale(0.015625)"/>
       <path id="DejaVuSans-65" d="M 3597 1894 
L 3597 1613 
L 953 1613 
Q 991 1019 1311 708 
Q 1631 397 2203 397 
Q 2534 397 2845 478 
Q 3156 559 3463 722 
L 3463 178 
Q 3153 47 2828 -22 
Q 2503 -91 2169 -91 
Q 1331 -91 842 396 
Q 353 884 353 1716 
Q 353 2575 817 3079 
Q 1281 3584 2069 3584 
Q 2775 3584 3186 3129 
Q 3597 2675 3597 1894 
z
M 3022 2063 
Q 3016 2534 2758 2815 
Q 2500 3097 2075 3097 
Q 1594 3097 1305 2825 
Q 1016 2553 972 2059 
L 3022 2063 
z
" transform="scale(0.015625)"/>
       <path id="DejaVuSans-61" d="M 2194 1759 
Q 1497 1759 1228 1600 
Q 959 1441 959 1056 
Q 959 750 1161 570 
Q 1363 391 1709 391 
Q 2188 391 2477 730 
Q 2766 1069 2766 1631 
L 2766 1759 
L 2194 1759 
z
M 3341 1997 
L 3341 0 
L 2766 0 
L 2766 531 
Q 2569 213 2275 61 
Q 1981 -91 1556 -91 
Q 1019 -91 701 211 
Q 384 513 384 1019 
Q 384 1609 779 1909 
Q 1175 2209 1959 2209 
L 2766 2209 
L 2766 2266 
Q 2766 2663 2505 2880 
Q 2244 3097 1772 3097 
Q 1472 3097 1187 3025 
Q 903 2953 641 2809 
L 641 3341 
Q 956 3463 1253 3523 
Q 1550 3584 1831 3584 
Q 2591 3584 2966 3190 
Q 3341 2797 3341 1997 
z
" transform="scale(0.015625)"/>
       <path id="DejaVuSans-72" d="M 2631 2963 
Q 2534 3019 2420 3045 
Q 2306 3072 2169 3072 
Q 1681 3072 1420 2755 
Q 1159 2438 1159 1844 
L 1159 0 
L 581 0 
L 581 3500 
L 1159 3500 
L 1159 2956 
Q 1341 3275 1631 3429 
Q 1922 3584 2338 3584 
Q 2397 3584 2469 3576 
Q 2541 3569 2628 3553 
L 2631 2963 
z
" transform="scale(0.015625)"/>
      </defs>
      <use xlink:href="#DejaVuSans-79"/>
      <use xlink:href="#DejaVuSans-65" x="59.179688"/>
      <use xlink:href="#DejaVuSans-61" x="120.703125"/>
      <use xlink:href="#DejaVuSans-72" x="181.982422"/>
     </g>
    </g>
   </g>
   <g id="matplotlib.axis_2">
    <g id="ytick_1">
     <g id="line2d_6">
      <defs>
       <path id="md7afb53f0d" d="M 0 0 
L -3.5 0 
" style="stroke: #000000; stroke-width: 0.8"/>
      </defs>
      <g>
       <use xlink:href="#md7afb53f0d" x="57.6" y="283.709626" style="stroke: #000000; stroke-width: 0.8"/>
      </g>
     </g>
     <g id="text_7">
      <!-- 1 -->
      <g transform="translate(42.965 288.268688) scale(0.12 -0.12)">
       <use xlink:href="#DejaVuSans-31"/>
      </g>
     </g>
    </g>
    <g id="ytick_2">
     <g id="line2d_7">
      <g>
       <use xlink:href="#md7afb53f0d" x="57.6" y="259.485863" style="stroke: #000000; stroke-width: 0.8"/>
      </g>
     </g>
     <g id="text_8">
      <!-- 3 -->
      <g transform="translate(42.965 264.044925) scale(0.12 -0.12)">
       <use xlink:href="#DejaVuSans-33"/>
      </g>
     </g>
    </g>
    <g id="ytick_3">
     <g id="line2d_8">
      <g>
       <use xlink:href="#md7afb53f0d" x="57.6" y="235.2621" style="stroke: #000000; stroke-width: 0.8"/>
      </g>
     </g>
     <g id="text_9">
      <!-- 5 -->
      <g transform="translate(42.965 239.821163) scale(0.12 -0.12)">
       <defs>
        <path id="DejaVuSans-35" d="M 691 4666 
L 3169 4666 
L 3169 4134 
L 1269 4134 
L 1269 2991 
Q 1406 3038 1543 3061 
Q 1681 3084 1819 3084 
Q 2600 3084 3056 2656 
Q 3513 2228 3513 1497 
Q 3513 744 3044 326 
Q 2575 -91 1722 -91 
Q 1428 -91 1123 -41 
Q 819 9 494 109 
L 494 744 
Q 775 591 1075 516 
Q 1375 441 1709 441 
Q 2250 441 2565 725 
Q 2881 1009 2881 1497 
Q 2881 1984 2565 2268 
Q 2250 2553 1709 2553 
Q 1456 2553 1204 2497 
Q 953 2441 691 2322 
L 691 4666 
z
" transform="scale(0.015625)"/>
       </defs>
       <use xlink:href="#DejaVuSans-35"/>
      </g>
     </g>
    </g>
    <g id="ytick_4">
     <g id="line2d_9">
      <g>
       <use xlink:href="#md7afb53f0d" x="57.6" y="211.038338" style="stroke: #000000; stroke-width: 0.8"/>
      </g>
     </g>
     <g id="text_10">
      <!-- 7 -->
      <g transform="translate(42.965 215.5974) scale(0.12 -0.12)">
       <defs>
        <path id="DejaVuSans-37" d="M 525 4666 
L 3525 4666 
L 3525 4397 
L 1831 0 
L 1172 0 
L 2766 4134 
L 525 4134 
L 525 4666 
z
" transform="scale(0.015625)"/>
       </defs>
       <use xlink:href="#DejaVuSans-37"/>
      </g>
     </g>
    </g>
    <g id="ytick_5">
     <g id="line2d_10">
      <g>
       <use xlink:href="#md7afb53f0d" x="57.6" y="186.814575" style="stroke: #000000; stroke-width: 0.8"/>
      </g>
     </g>
     <g id="text_11">
      <!-- 9 -->
      <g transform="translate(42.965 191.373638) scale(0.12 -0.12)">
       <use xlink:href="#DejaVuSans-39"/>
      </g>
     </g>
    </g>
    <g id="ytick_6">
     <g id="line2d_11">
      <g>
       <use xlink:href="#md7afb53f0d" x="57.6" y="162.590813" style="stroke: #000000; stroke-width: 0.8"/>
      </g>
     </g>
     <g id="text_12">
      <!-- 11 -->
      <g transform="translate(35.33 167.149875) scale(0.12 -0.12)">
       <use xlink:href="#DejaVuSans-31"/>
       <use xlink:href="#DejaVuSans-31" x="63.623047"/>
      </g>
     </g>
    </g>
    <g id="ytick_7">
     <g id="line2d_12">
      <g>
       <use xlink:href="#md7afb53f0d" x="57.6" y="138.36705" style="stroke: #000000; stroke-width: 0.8"/>
      </g>
     </g>
     <g id="text_13">
      <!-- 13 -->
      <g transform="translate(35.33 142.926113) scale(0.12 -0.12)">
       <use xlink:href="#DejaVuSans-31"/>
       <use xlink:href="#DejaVuSans-33" x="63.623047"/>
      </g>
     </g>
    </g>
    <g id="ytick_8">
     <g id="line2d_13">
      <g>
       <use xlink:href="#md7afb53f0d" x="57.6" y="114.143288" style="stroke: #000000; stroke-width: 0.8"/>
      </g>
     </g>
     <g id="text_14">
      <!-- 15 -->
      <g transform="translate(35.33 118.70235) scale(0.12 -0.12)">
       <use xlink:href="#DejaVuSans-31"/>
       <use xlink:href="#DejaVuSans-35" x="63.623047"/>
      </g>
     </g>
    </g>
    <g id="ytick_9">
     <g id="line2d_14">
      <g>
       <use xlink:href="#md7afb53f0d" x="57.6" y="89.919525" style="stroke: #000000; stroke-width: 0.8"/>
      </g>
     </g>
     <g id="text_15">
      <!-- 17 -->
      <g transform="translate(35.33 94.478588) scale(0.12 -0.12)">
       <use xlink:href="#DejaVuSans-31"/>
       <use xlink:href="#DejaVuSans-37" x="63.623047"/>
      </g>
     </g>
    </g>
    <g id="ytick_10">
     <g id="line2d_15">
      <g>
       <use xlink:href="#md7afb53f0d" x="57.6" y="65.695763" style="stroke: #000000; stroke-width: 0.8"/>
      </g>
     </g>
     <g id="text_16">
      <!-- 19 -->
      <g transform="translate(35.33 70.254825) scale(0.12 -0.12)">
       <use xlink:href="#DejaVuSans-31"/>
       <use xlink:href="#DejaVuSans-39" x="63.623047"/>
      </g>
     </g>
    </g>
    <g id="ytick_11">
     <g id="line2d_16">
      <g>
       <use xlink:href="#md7afb53f0d" x="57.6" y="41.472" style="stroke: #000000; stroke-width: 0.8"/>
      </g>
     </g>
     <g id="text_17">
      <!-- 21 -->
      <g transform="translate(35.33 46.031062) scale(0.12 -0.12)">
       <use xlink:href="#DejaVuSans-32"/>
       <use xlink:href="#DejaVuSans-31" x="63.623047"/>
      </g>
     </g>
    </g>
    <g id="text_18">
     <!-- crude rate -->
     <g transform="translate(28.418437 210.885344) rotate(-90) scale(0.14 -0.14)">
      <defs>
       <path id="DejaVuSans-63" d="M 3122 3366 
L 3122 2828 
Q 2878 2963 2633 3030 
Q 2388 3097 2138 3097 
Q 1578 3097 1268 2742 
Q 959 2388 959 1747 
Q 959 1106 1268 751 
Q 1578 397 2138 397 
Q 2388 397 2633 464 
Q 2878 531 3122 666 
L 3122 134 
Q 2881 22 2623 -34 
Q 2366 -91 2075 -91 
Q 1284 -91 818 406 
Q 353 903 353 1747 
Q 353 2603 823 3093 
Q 1294 3584 2113 3584 
Q 2378 3584 2631 3529 
Q 2884 3475 3122 3366 
z
" transform="scale(0.015625)"/>
       <path id="DejaVuSans-75" d="M 544 1381 
L 544 3500 
L 1119 3500 
L 1119 1403 
Q 1119 906 1312 657 
Q 1506 409 1894 409 
Q 2359 409 2629 706 
Q 2900 1003 2900 1516 
L 2900 3500 
L 3475 3500 
L 3475 0 
L 2900 0 
L 2900 538 
Q 2691 219 2414 64 
Q 2138 -91 1772 -91 
Q 1169 -91 856 284 
Q 544 659 544 1381 
z
M 1991 3584 
L 1991 3584 
z
" transform="scale(0.015625)"/>
       <path id="DejaVuSans-64" d="M 2906 2969 
L 2906 4863 
L 3481 4863 
L 3481 0 
L 2906 0 
L 2906 525 
Q 2725 213 2448 61 
Q 2172 -91 1784 -91 
Q 1150 -91 751 415 
Q 353 922 353 1747 
Q 353 2572 751 3078 
Q 1150 3584 1784 3584 
Q 2172 3584 2448 3432 
Q 2725 3281 2906 2969 
z
M 947 1747 
Q 947 1113 1208 752 
Q 1469 391 1925 391 
Q 2381 391 2643 752 
Q 2906 1113 2906 1747 
Q 2906 2381 2643 2742 
Q 2381 3103 1925 3103 
Q 1469 3103 1208 2742 
Q 947 2381 947 1747 
z
" transform="scale(0.015625)"/>
       <path id="DejaVuSans-20" transform="scale(0.015625)"/>
       <path id="DejaVuSans-74" d="M 1172 4494 
L 1172 3500 
L 2356 3500 
L 2356 3053 
L 1172 3053 
L 1172 1153 
Q 1172 725 1289 603 
Q 1406 481 1766 481 
L 2356 481 
L 2356 0 
L 1766 0 
Q 1100 0 847 248 
Q 594 497 594 1153 
L 594 3053 
L 172 3053 
L 172 3500 
L 594 3500 
L 594 4494 
L 1172 4494 
z
" transform="scale(0.015625)"/>
      </defs>
      <use xlink:href="#DejaVuSans-63"/>
      <use xlink:href="#DejaVuSans-72" x="54.980469"/>
      <use xlink:href="#DejaVuSans-75" x="96.09375"/>
      <use xlink:href="#DejaVuSans-64" x="159.472656"/>
      <use xlink:href="#DejaVuSans-65" x="222.949219"/>
      <use xlink:href="#DejaVuSans-20" x="284.472656"/>
      <use xlink:href="#DejaVuSans-72" x="316.259766"/>
      <use xlink:href="#DejaVuSans-61" x="357.373047"/>
      <use xlink:href="#DejaVuSans-74" x="418.652344"/>
      <use xlink:href="#DejaVuSans-65" x="457.861328"/>
     </g>
    </g>
   </g>
   <g id="line2d_17">
    <path d="M 73.832727 271.762906 
L 82.519137 265.985064 
L 91.205546 260.465133 
L 99.891955 255.203113 
L 108.578364 250.199003 
L 117.264773 245.452805 
L 125.951183 240.964518 
L 134.637592 236.734141 
L 143.324001 232.761676 
L 152.01041 229.047121 
L 160.69682 225.590478 
L 169.383229 222.391745 
L 178.069638 219.450924 
L 186.756047 216.768013 
L 195.442457 214.343014 
L 204.128866 212.175925 
L 212.815275 210.266747 
L 221.501684 208.615481 
L 229.102292 207.38219 
L 236.702901 206.346362 
L 244.303509 205.507998 
L 251.904117 204.867096 
L 259.504725 204.423658 
L 267.105333 204.177682 
L 274.705941 204.12917 
L 282.306549 204.278121 
L 289.907157 204.624535 
L 297.507765 205.168412 
L 305.108373 205.909752 
L 312.708981 206.848555 
L 320.30959 207.984821 
L 327.910198 209.318551 
L 336.596607 211.084604 
L 345.283016 213.108569 
L 353.969425 215.390444 
L 362.655835 217.930231 
L 371.342244 220.727929 
L 380.028653 223.783537 
L 388.715062 227.097056 
L 397.401472 230.668487 
L 398.487273 231.13305 
L 398.487273 231.13305 
" clip-path="url(#pa3f6328123)" style="fill: none; stroke: #ffa500; stroke-width: 1.5; stroke-linecap: square"/>
   </g>
   <g id="line2d_18">
    <path d="M 73.832727 244.180849 
L 81.433335 235.580239 
L 89.033943 227.286686 
L 96.634552 219.30019 
L 104.23516 211.620752 
L 111.835768 204.248372 
L 119.436376 197.183049 
L 127.036984 190.424783 
L 134.637592 183.973575 
L 142.2382 177.829425 
L 149.838808 171.992332 
L 157.439416 166.462296 
L 165.040024 161.239319 
L 172.640632 156.323398 
L 179.155439 152.354145 
L 185.670246 148.610485 
L 192.185053 145.092418 
L 198.69986 141.799944 
L 205.214667 138.733064 
L 211.729474 135.891777 
L 218.244281 133.276083 
L 224.759088 130.885983 
L 231.273895 128.721476 
L 237.788702 126.782562 
L 244.303509 125.069241 
L 250.818316 123.581514 
L 257.333123 122.31938 
L 263.847929 121.282839 
L 270.362736 120.471892 
L 276.877543 119.886537 
L 283.39235 119.526776 
L 289.907157 119.392609 
L 296.421964 119.484034 
L 302.936771 119.801053 
L 309.451578 120.343665 
L 315.966385 121.111871 
L 322.481192 122.105669 
L 328.995999 123.325061 
L 335.510806 124.770046 
L 342.025613 126.440625 
L 348.54042 128.336797 
L 355.055227 130.458562 
L 361.570033 132.80592 
L 368.08484 135.378872 
L 374.599647 138.177417 
L 381.114454 141.201555 
L 387.629261 144.451286 
L 394.144068 147.926611 
L 398.487273 150.368823 
L 398.487273 150.368823 
" clip-path="url(#pa3f6328123)" style="fill: none; stroke: #000000; stroke-width: 1.5; stroke-linecap: square"/>
   </g>
   <g id="line2d_19">
    <path d="M 154.996364 287.282631 
L 171.283381 285.678881 
L 187.570398 284.294606 
L 203.857416 283.129806 
L 220.144433 282.18448 
L 236.43145 281.458628 
L 252.718468 280.952252 
L 269.005485 280.66535 
L 285.292502 280.597922 
L 301.57952 280.749969 
L 317.866537 281.121491 
L 334.153554 281.712487 
L 350.440572 282.522958 
L 366.727589 283.552904 
L 383.014606 284.802324 
L 398.487273 286.192561 
L 398.487273 286.192561 
" clip-path="url(#pa3f6328123)" style="fill: none; stroke: #008000; stroke-width: 1.5; stroke-linecap: square"/>
   </g>
   <g id="line2d_20">
    <path d="M 73.832727 266.566205 
L 82.519137 260.788363 
L 91.205546 255.268431 
L 99.891955 250.006411 
L 108.578364 245.002302 
L 117.264773 240.256103 
L 125.951183 235.767816 
L 134.637592 231.53744 
L 143.324001 227.564974 
L 152.01041 223.85042 
L 160.69682 220.393776 
L 169.383229 217.195044 
L 178.069638 214.254222 
L 186.756047 211.571312 
L 195.442457 209.146312 
L 204.128866 206.979224 
L 212.815275 205.070046 
L 221.501684 203.418779 
L 229.102292 202.185488 
L 236.702901 201.149661 
L 244.303509 200.311296 
L 251.904117 199.670395 
L 259.504725 199.226956 
L 267.105333 198.980981 
L 274.705941 198.932469 
L 282.306549 199.081419 
L 289.907157 199.427833 
L 297.507765 199.97171 
L 305.108373 200.71305 
L 312.708981 201.651854 
L 320.30959 202.78812 
L 327.910198 204.121849 
L 336.596607 205.887903 
L 345.283016 207.911867 
L 353.969425 210.193743 
L 362.655835 212.733529 
L 371.342244 215.531227 
L 380.028653 218.586835 
L 388.715062 221.900355 
L 397.401472 225.471785 
L 398.487273 225.936348 
L 398.487273 225.936348 
" clip-path="url(#pa3f6328123)" style="fill: none; stroke-dasharray: 5.55,2.4; stroke-dashoffset: 0; stroke: #ffa500; stroke-width: 1.5"/>
   </g>
   <g id="line2d_21">
    <path d="M 73.832727 276.959608 
L 82.519137 271.181766 
L 91.205546 265.661834 
L 99.891955 260.399814 
L 108.578364 255.395705 
L 117.264773 250.649507 
L 125.951183 246.161219 
L 134.637592 241.930843 
L 143.324001 237.958377 
L 152.01041 234.243823 
L 160.69682 230.787179 
L 169.383229 227.588447 
L 178.069638 224.647625 
L 186.756047 221.964715 
L 195.442457 219.539715 
L 204.128866 217.372627 
L 212.815275 215.463449 
L 221.501684 213.812182 
L 229.102292 212.578891 
L 236.702901 211.543064 
L 244.303509 210.704699 
L 251.904117 210.063798 
L 259.504725 209.620359 
L 267.105333 209.374384 
L 274.705941 209.325872 
L 282.306549 209.474822 
L 289.907157 209.821236 
L 297.507765 210.365113 
L 305.108373 211.106453 
L 312.708981 212.045257 
L 320.30959 213.181523 
L 327.910198 214.515252 
L 336.596607 216.281306 
L 345.283016 218.30527 
L 353.969425 220.587146 
L 362.655835 223.126933 
L 371.342244 225.92463 
L 380.028653 228.980239 
L 388.715062 232.293758 
L 397.401472 235.865188 
L 398.487273 236.329752 
L 398.487273 236.329752 
" clip-path="url(#pa3f6328123)" style="fill: none; stroke-dasharray: 5.55,2.4; stroke-dashoffset: 0; stroke: #ffa500; stroke-width: 1.5"/>
   </g>
   <g id="line2d_22">
    <path d="M 73.832727 192.213834 
L 81.433335 183.613223 
L 89.033943 175.31967 
L 96.634552 167.333175 
L 104.23516 159.653737 
L 111.835768 152.281356 
L 119.436376 145.216033 
L 127.036984 138.457768 
L 134.637592 132.00656 
L 142.2382 125.862409 
L 149.838808 120.025316 
L 157.439416 114.495281 
L 165.040024 109.272303 
L 172.640632 104.356383 
L 179.155439 100.387129 
L 185.670246 96.643469 
L 192.185053 93.125402 
L 198.69986 89.832929 
L 205.214667 86.766049 
L 211.729474 83.924762 
L 218.244281 81.309068 
L 224.759088 78.918967 
L 231.273895 76.75446 
L 237.788702 74.815546 
L 244.303509 73.102226 
L 250.818316 71.614498 
L 257.333123 70.352364 
L 263.847929 69.315824 
L 270.362736 68.504876 
L 276.877543 67.919522 
L 283.39235 67.559761 
L 289.907157 67.425593 
L 296.421964 67.517019 
L 302.936771 67.834038 
L 309.451578 68.37665 
L 315.966385 69.144855 
L 322.481192 70.138654 
L 328.995999 71.358046 
L 335.510806 72.803031 
L 342.025613 74.473609 
L 348.54042 76.369781 
L 355.055227 78.491546 
L 361.570033 80.838904 
L 368.08484 83.411856 
L 374.599647 86.210401 
L 381.114454 89.234539 
L 387.629261 92.48427 
L 394.144068 95.959595 
L 398.487273 98.401808 
L 398.487273 98.401808 
" clip-path="url(#pa3f6328123)" style="fill: none; stroke-dasharray: 5.55,2.4; stroke-dashoffset: 0; stroke: #000000; stroke-width: 1.5"/>
   </g>
   <g id="line2d_23">
    <path d="M 73.832727 296.147865 
L 81.433335 287.547254 
L 89.033943 279.253701 
L 96.634552 271.267206 
L 104.23516 263.587768 
L 111.835768 256.215387 
L 119.436376 249.150064 
L 127.036984 242.391799 
L 134.637592 235.940591 
L 142.2382 229.79644 
L 149.838808 223.959347 
L 157.439416 218.429312 
L 165.040024 213.206334 
L 172.640632 208.290414 
L 179.155439 204.32116 
L 185.670246 200.5775 
L 192.185053 197.059433 
L 198.69986 193.76696 
L 205.214667 190.70008 
L 211.729474 187.858793 
L 218.244281 185.243099 
L 224.759088 182.852999 
L 231.273895 180.688491 
L 237.788702 178.749577 
L 244.303509 177.036257 
L 250.818316 175.54853 
L 257.333123 174.286395 
L 263.847929 173.249855 
L 270.362736 172.438907 
L 276.877543 171.853553 
L 283.39235 171.493792 
L 289.907157 171.359624 
L 296.421964 171.45105 
L 302.936771 171.768069 
L 309.451578 172.310681 
L 315.966385 173.078886 
L 322.481192 174.072685 
L 328.995999 175.292077 
L 335.510806 176.737062 
L 342.025613 178.407641 
L 348.54042 180.303812 
L 355.055227 182.425577 
L 361.570033 184.772936 
L 368.08484 187.345887 
L 374.599647 190.144432 
L 381.114454 193.16857 
L 387.629261 196.418302 
L 394.144068 199.893626 
L 398.487273 202.335839 
L 398.487273 202.335839 
" clip-path="url(#pa3f6328123)" style="fill: none; stroke-dasharray: 5.55,2.4; stroke-dashoffset: 0; stroke: #000000; stroke-width: 1.5"/>
   </g>
   <g id="line2d_24">
    <path d="M 154.996364 286.470141 
L 171.283381 284.866391 
L 187.570398 283.482116 
L 203.857416 282.317316 
L 220.144433 281.37199 
L 236.43145 280.646139 
L 252.718468 280.139762 
L 269.005485 279.85286 
L 285.292502 279.785433 
L 301.57952 279.93748 
L 317.866537 280.309001 
L 334.153554 280.899998 
L 350.440572 281.710469 
L 366.727589 282.740414 
L 383.014606 283.989834 
L 398.487273 285.380071 
L 398.487273 285.380071 
" clip-path="url(#pa3f6328123)" style="fill: none; stroke-dasharray: 5.55,2.4; stroke-dashoffset: 0; stroke: #008000; stroke-width: 1.5"/>
   </g>
   <g id="line2d_25">
    <path d="M 154.996364 288.09512 
L 171.283381 286.491371 
L 187.570398 285.107096 
L 203.857416 283.942295 
L 220.144433 282.996969 
L 236.43145 282.271118 
L 252.718468 281.764741 
L 269.005485 281.477839 
L 285.292502 281.410412 
L 301.57952 281.562459 
L 317.866537 281.933981 
L 334.153554 282.524977 
L 350.440572 283.335448 
L 366.727589 284.365393 
L 383.014606 285.614813 
L 398.487273 287.005051 
L 398.487273 287.005051 
" clip-path="url(#pa3f6328123)" style="fill: none; stroke-dasharray: 5.55,2.4; stroke-dashoffset: 0; stroke: #008000; stroke-width: 1.5"/>
   </g>
   <g id="patch_3">
    <path d="M 57.6 307.584 
L 57.6 41.472 
" style="fill: none; stroke: #000000; stroke-width: 0.8; stroke-linejoin: miter; stroke-linecap: square"/>
   </g>
   <g id="patch_4">
    <path d="M 414.72 307.584 
L 414.72 41.472 
" style="fill: none; stroke: #000000; stroke-width: 0.8; stroke-linejoin: miter; stroke-linecap: square"/>
   </g>
   <g id="patch_5">
    <path d="M 57.6 307.584 
L 414.72 307.584 
" style="fill: none; stroke: #000000; stroke-width: 0.8; stroke-linejoin: miter; stroke-linecap: square"/>
   </g>
   <g id="patch_6">
    <path d="M 57.6 41.472 
L 414.72 41.472 
" style="fill: none; stroke: #000000; stroke-width: 0.8; stroke-linejoin: miter; stroke-linecap: square"/>
   </g>
   <g id="legend_1">
    <g id="line2d_26">
     <path d="M 70.2 59.809812 
L 84.2 59.809812 
L 98.2 59.809812 
" style="fill: none; stroke: #ffa500; stroke-width: 1.5; stroke-linecap: square"/>
    </g>
    <g id="text_19">
     <!-- White -->
     <g transform="translate(109.4 64.709812) scale(0.14 -0.14)">
      <defs>
       <path id="DejaVuSans-57" d="M 213 4666 
L 850 4666 
L 1831 722 
L 2809 4666 
L 3519 4666 
L 4500 722 
L 5478 4666 
L 6119 4666 
L 4947 0 
L 4153 0 
L 3169 4050 
L 2175 0 
L 1381 0 
L 213 4666 
z
" transform="scale(0.015625)"/>
       <path id="DejaVuSans-68" d="M 3513 2113 
L 3513 0 
L 2938 0 
L 2938 2094 
Q 2938 2591 2744 2837 
Q 2550 3084 2163 3084 
Q 1697 3084 1428 2787 
Q 1159 2491 1159 1978 
L 1159 0 
L 581 0 
L 581 4863 
L 1159 4863 
L 1159 2956 
Q 1366 3272 1645 3428 
Q 1925 3584 2291 3584 
Q 2894 3584 3203 3211 
Q 3513 2838 3513 2113 
z
" transform="scale(0.015625)"/>
       <path id="DejaVuSans-69" d="M 603 3500 
L 1178 3500 
L 1178 0 
L 603 0 
L 603 3500 
z
M 603 4863 
L 1178 4863 
L 1178 4134 
L 603 4134 
L 603 4863 
z
" transform="scale(0.015625)"/>
      </defs>
      <use xlink:href="#DejaVuSans-57"/>
      <use xlink:href="#DejaVuSans-68" x="98.876953"/>
      <use xlink:href="#DejaVuSans-69" x="162.255859"/>
      <use xlink:href="#DejaVuSans-74" x="190.039062"/>
      <use xlink:href="#DejaVuSans-65" x="229.248047"/>
     </g>
    </g>
    <g id="line2d_27">
     <path d="M 70.2 80.359187 
L 84.2 80.359187 
L 98.2 80.359187 
" style="fill: none; stroke: #000000; stroke-width: 1.5; stroke-linecap: square"/>
    </g>
    <g id="text_20">
     <!-- Black -->
     <g transform="translate(109.4 85.259187) scale(0.14 -0.14)">
      <defs>
       <path id="DejaVuSans-42" d="M 1259 2228 
L 1259 519 
L 2272 519 
Q 2781 519 3026 730 
Q 3272 941 3272 1375 
Q 3272 1813 3026 2020 
Q 2781 2228 2272 2228 
L 1259 2228 
z
M 1259 4147 
L 1259 2741 
L 2194 2741 
Q 2656 2741 2882 2914 
Q 3109 3088 3109 3444 
Q 3109 3797 2882 3972 
Q 2656 4147 2194 4147 
L 1259 4147 
z
M 628 4666 
L 2241 4666 
Q 2963 4666 3353 4366 
Q 3744 4066 3744 3513 
Q 3744 3084 3544 2831 
Q 3344 2578 2956 2516 
Q 3422 2416 3680 2098 
Q 3938 1781 3938 1306 
Q 3938 681 3513 340 
Q 3088 0 2303 0 
L 628 0 
L 628 4666 
z
" transform="scale(0.015625)"/>
       <path id="DejaVuSans-6c" d="M 603 4863 
L 1178 4863 
L 1178 0 
L 603 0 
L 603 4863 
z
" transform="scale(0.015625)"/>
       <path id="DejaVuSans-6b" d="M 581 4863 
L 1159 4863 
L 1159 1991 
L 2875 3500 
L 3609 3500 
L 1753 1863 
L 3688 0 
L 2938 0 
L 1159 1709 
L 1159 0 
L 581 0 
L 581 4863 
z
" transform="scale(0.015625)"/>
      </defs>
      <use xlink:href="#DejaVuSans-42"/>
      <use xlink:href="#DejaVuSans-6c" x="68.603516"/>
      <use xlink:href="#DejaVuSans-61" x="96.386719"/>
      <use xlink:href="#DejaVuSans-63" x="157.666016"/>
      <use xlink:href="#DejaVuSans-6b" x="212.646484"/>
     </g>
    </g>
    <g id="line2d_28">
     <path d="M 70.2 100.908562 
L 84.2 100.908562 
L 98.2 100.908562 
" style="fill: none; stroke: #008000; stroke-width: 1.5; stroke-linecap: square"/>
    </g>
    <g id="text_21">
     <!-- Asian -->
     <g transform="translate(109.4 105.808562) scale(0.14 -0.14)">
      <defs>
       <path id="DejaVuSans-41" d="M 2188 4044 
L 1331 1722 
L 3047 1722 
L 2188 4044 
z
M 1831 4666 
L 2547 4666 
L 4325 0 
L 3669 0 
L 3244 1197 
L 1141 1197 
L 716 0 
L 50 0 
L 1831 4666 
z
" transform="scale(0.015625)"/>
       <path id="DejaVuSans-73" d="M 2834 3397 
L 2834 2853 
Q 2591 2978 2328 3040 
Q 2066 3103 1784 3103 
Q 1356 3103 1142 2972 
Q 928 2841 928 2578 
Q 928 2378 1081 2264 
Q 1234 2150 1697 2047 
L 1894 2003 
Q 2506 1872 2764 1633 
Q 3022 1394 3022 966 
Q 3022 478 2636 193 
Q 2250 -91 1575 -91 
Q 1294 -91 989 -36 
Q 684 19 347 128 
L 347 722 
Q 666 556 975 473 
Q 1284 391 1588 391 
Q 1994 391 2212 530 
Q 2431 669 2431 922 
Q 2431 1156 2273 1281 
Q 2116 1406 1581 1522 
L 1381 1569 
Q 847 1681 609 1914 
Q 372 2147 372 2553 
Q 372 3047 722 3315 
Q 1072 3584 1716 3584 
Q 2034 3584 2315 3537 
Q 2597 3491 2834 3397 
z
" transform="scale(0.015625)"/>
       <path id="DejaVuSans-6e" d="M 3513 2113 
L 3513 0 
L 2938 0 
L 2938 2094 
Q 2938 2591 2744 2837 
Q 2550 3084 2163 3084 
Q 1697 3084 1428 2787 
Q 1159 2491 1159 1978 
L 1159 0 
L 581 0 
L 581 3500 
L 1159 3500 
L 1159 2956 
Q 1366 3272 1645 3428 
Q 1925 3584 2291 3584 
Q 2894 3584 3203 3211 
Q 3513 2838 3513 2113 
z
" transform="scale(0.015625)"/>
      </defs>
      <use xlink:href="#DejaVuSans-41"/>
      <use xlink:href="#DejaVuSans-73" x="68.408203"/>
      <use xlink:href="#DejaVuSans-69" x="120.507812"/>
      <use xlink:href="#DejaVuSans-61" x="148.291016"/>
      <use xlink:href="#DejaVuSans-6e" x="209.570312"/>
     </g>
    </g>
   </g>
  </g>
  <g id="text_22">
   <!-- California (Female) -->
   <g transform="translate(135.778125 22.108875) scale(0.2 -0.2)">
    <defs>
     <path id="DejaVuSans-43" d="M 4122 4306 
L 4122 3641 
Q 3803 3938 3442 4084 
Q 3081 4231 2675 4231 
Q 1875 4231 1450 3742 
Q 1025 3253 1025 2328 
Q 1025 1406 1450 917 
Q 1875 428 2675 428 
Q 3081 428 3442 575 
Q 3803 722 4122 1019 
L 4122 359 
Q 3791 134 3420 21 
Q 3050 -91 2638 -91 
Q 1578 -91 968 557 
Q 359 1206 359 2328 
Q 359 3453 968 4101 
Q 1578 4750 2638 4750 
Q 3056 4750 3426 4639 
Q 3797 4528 4122 4306 
z
" transform="scale(0.015625)"/>
     <path id="DejaVuSans-66" d="M 2375 4863 
L 2375 4384 
L 1825 4384 
Q 1516 4384 1395 4259 
Q 1275 4134 1275 3809 
L 1275 3500 
L 2222 3500 
L 2222 3053 
L 1275 3053 
L 1275 0 
L 697 0 
L 697 3053 
L 147 3053 
L 147 3500 
L 697 3500 
L 697 3744 
Q 697 4328 969 4595 
Q 1241 4863 1831 4863 
L 2375 4863 
z
" transform="scale(0.015625)"/>
     <path id="DejaVuSans-6f" d="M 1959 3097 
Q 1497 3097 1228 2736 
Q 959 2375 959 1747 
Q 959 1119 1226 758 
Q 1494 397 1959 397 
Q 2419 397 2687 759 
Q 2956 1122 2956 1747 
Q 2956 2369 2687 2733 
Q 2419 3097 1959 3097 
z
M 1959 3584 
Q 2709 3584 3137 3096 
Q 3566 2609 3566 1747 
Q 3566 888 3137 398 
Q 2709 -91 1959 -91 
Q 1206 -91 779 398 
Q 353 888 353 1747 
Q 353 2609 779 3096 
Q 1206 3584 1959 3584 
z
" transform="scale(0.015625)"/>
     <path id="DejaVuSans-28" d="M 1984 4856 
Q 1566 4138 1362 3434 
Q 1159 2731 1159 2009 
Q 1159 1288 1364 580 
Q 1569 -128 1984 -844 
L 1484 -844 
Q 1016 -109 783 600 
Q 550 1309 550 2009 
Q 550 2706 781 3412 
Q 1013 4119 1484 4856 
L 1984 4856 
z
" transform="scale(0.015625)"/>
     <path id="DejaVuSans-46" d="M 628 4666 
L 3309 4666 
L 3309 4134 
L 1259 4134 
L 1259 2759 
L 3109 2759 
L 3109 2228 
L 1259 2228 
L 1259 0 
L 628 0 
L 628 4666 
z
" transform="scale(0.015625)"/>
     <path id="DejaVuSans-6d" d="M 3328 2828 
Q 3544 3216 3844 3400 
Q 4144 3584 4550 3584 
Q 5097 3584 5394 3201 
Q 5691 2819 5691 2113 
L 5691 0 
L 5113 0 
L 5113 2094 
Q 5113 2597 4934 2840 
Q 4756 3084 4391 3084 
Q 3944 3084 3684 2787 
Q 3425 2491 3425 1978 
L 3425 0 
L 2847 0 
L 2847 2094 
Q 2847 2600 2669 2842 
Q 2491 3084 2119 3084 
Q 1678 3084 1418 2786 
Q 1159 2488 1159 1978 
L 1159 0 
L 581 0 
L 581 3500 
L 1159 3500 
L 1159 2956 
Q 1356 3278 1631 3431 
Q 1906 3584 2284 3584 
Q 2666 3584 2933 3390 
Q 3200 3197 3328 2828 
z
" transform="scale(0.015625)"/>
     <path id="DejaVuSans-29" d="M 513 4856 
L 1013 4856 
Q 1481 4119 1714 3412 
Q 1947 2706 1947 2009 
Q 1947 1309 1714 600 
Q 1481 -109 1013 -844 
L 513 -844 
Q 928 -128 1133 580 
Q 1338 1288 1338 2009 
Q 1338 2731 1133 3434 
Q 928 4138 513 4856 
z
" transform="scale(0.015625)"/>
    </defs>
    <use xlink:href="#DejaVuSans-43"/>
    <use xlink:href="#DejaVuSans-61" x="69.824219"/>
    <use xlink:href="#DejaVuSans-6c" x="131.103516"/>
    <use xlink:href="#DejaVuSans-69" x="158.886719"/>
    <use xlink:href="#DejaVuSans-66" x="186.669922"/>
    <use xlink:href="#DejaVuSans-6f" x="221.875"/>
    <use xlink:href="#DejaVuSans-72" x="283.056641"/>
    <use xlink:href="#DejaVuSans-6e" x="322.419922"/>
    <use xlink:href="#DejaVuSans-69" x="385.798828"/>
    <use xlink:href="#DejaVuSans-61" x="413.582031"/>
    <use xlink:href="#DejaVuSans-20" x="474.861328"/>
    <use xlink:href="#DejaVuSans-28" x="506.648438"/>
    <use xlink:href="#DejaVuSans-46" x="545.662109"/>
    <use xlink:href="#DejaVuSans-65" x="597.681641"/>
    <use xlink:href="#DejaVuSans-6d" x="659.205078"/>
    <use xlink:href="#DejaVuSans-61" x="756.617188"/>
    <use xlink:href="#DejaVuSans-6c" x="817.896484"/>
    <use xlink:href="#DejaVuSans-65" x="845.679688"/>
    <use xlink:href="#DejaVuSans-29" x="907.203125"/>
   </g>
  </g>
 </g>
 <defs>
  <clipPath id="pa3f6328123">
   <rect x="57.6" y="41.472" width="357.12" height="266.112"/>
  </clipPath>
 </defs>
</svg>
