<?xml version="1.0" encoding="utf-8" standalone="no"?>
<!DOCTYPE svg PUBLIC "-//W3C//DTD SVG 1.1//EN"
  "http://www.w3.org/Graphics/SVG/1.1/DTD/svg11.dtd">
<svg xmlns:xlink="http://www.w3.org/1999/xlink" width="460.8pt" height="345.6pt" viewBox="0 0 460.8 345.6" xmlns="http://www.w3.org/2000/svg" version="1.1">
 <metadata>
  <rdf:RDF xmlns:dc="http://purl.org/dc/elements/1.1/" xmlns:cc="http://creativecommons.org/ns#" xmlns:rdf="http://www.w3.org/1999/02/22-rdf-syntax-ns#">
   <cc:Work>
    <dc:type rdf:resource="http://purl.org/dc/dcmitype/StillImage"/>
    <dc:date>2024-03-07T14:44:34.856860</dc:date>
    <dc:format>image/svg+xml</dc:format>
    <dc:creator>
     <cc:Agent>
      <dc:title>Matplotlib v3.8.3, https://matplotlib.org/</dc:title>
     </cc:Agent>
    </dc:creator>
   </cc:Work>
  </rdf:RDF>
 </metadata>
 <defs>
  <style type="text/css">*{stroke-linejoin: round; stroke-linecap: butt}</style>
 </defs>
 <g id="figure_1">
  <g id="patch_1">
   <path d="M 0 345.6 
L 460.8 345.6 
L 460.8 0 
L 0 0 
z
" style="fill: #ffffff"/>
  </g>
  <g id="axes_1">
   <g id="patch_2">
    <path d="M 57.6 307.584 
L 414.72 307.584 
L 414.72 41.472 
L 57.6 41.472 
z
" style="fill: #ffffff"/>
   </g>
   <g id="PathCollection_1">
    <defs>
     <path id="m8e7d0e11fc" d="M 0 3 
C 0.795609 3 1.55874 2.683901 2.12132 2.12132 
C 2.683901 1.55874 3 0.795609 3 0 
C 3 -0.795609 2.683901 -1.55874 2.12132 -2.12132 
C 1.55874 -2.683901 0.795609 -3 0 -3 
C -0.795609 -3 -1.55874 -2.683901 -2.12132 -2.12132 
C -2.683901 -1.55874 -3 -0.795609 -3 0 
C -3 0.795609 -2.683901 1.55874 -2.12132 2.12132 
C -1.55874 2.683901 -0.795609 3 0 3 
z
" style="stroke: #ffa500"/>
    </defs>
    <g clip-path="url(#pea4f0aaf14)">
     <use xlink:href="#m8e7d0e11fc" x="73.832727" y="258.404757" style="fill: #ffa500; stroke: #ffa500"/>
     <use xlink:href="#m8e7d0e11fc" x="236.16" y="169.497889" style="fill: #ffa500; stroke: #ffa500"/>
     <use xlink:href="#m8e7d0e11fc" x="317.323636" y="155.27279" style="fill: #ffa500; stroke: #ffa500"/>
     <use xlink:href="#m8e7d0e11fc" x="398.487273" y="196.614484" style="fill: #ffa500; stroke: #ffa500"/>
    </g>
   </g>
   <g id="PathCollection_2">
    <g clip-path="url(#pea4f0aaf14)">
     <use xlink:href="#m8e7d0e11fc" x="154.996364" y="210.839583" style="fill: #ffa500; stroke: #ffa500"/>
    </g>
   </g>
   <g id="PathCollection_3">
    <path d="M 154.996364 200.826446 
C 156.322379 200.826446 157.594263 200.299614 158.531898 199.361979 
C 159.469532 198.424345 159.996364 197.152461 159.996364 195.826446 
C 159.996364 194.50043 159.469532 193.228546 158.531898 192.290912 
C 157.594263 191.353277 156.322379 190.826446 154.996364 190.826446 
C 153.670348 190.826446 152.398464 191.353277 151.46083 192.290912 
C 150.523195 193.228546 149.996364 194.50043 149.996364 195.826446 
C 149.996364 197.152461 150.523195 198.424345 151.46083 199.361979 
C 152.398464 200.299614 153.670348 200.826446 154.996364 200.826446 
L 154.996364 200.826446 
z
" clip-path="url(#pea4f0aaf14)" style="fill: none; stroke: #ff0000"/>
   </g>
   <g id="PathCollection_4">
    <defs>
     <path id="m5061f88b35" d="M 0 3 
C 0.795609 3 1.55874 2.683901 2.12132 2.12132 
C 2.683901 1.55874 3 0.795609 3 0 
C 3 -0.795609 2.683901 -1.55874 2.12132 -2.12132 
C 1.55874 -2.683901 0.795609 -3 0 -3 
C -0.795609 -3 -1.55874 -2.683901 -2.12132 -2.12132 
C -2.683901 -1.55874 -3 -0.795609 -3 0 
C -3 0.795609 -2.683901 1.55874 -2.12132 2.12132 
C -1.55874 2.683901 -0.795609 3 0 3 
z
" style="stroke: #000000"/>
    </defs>
    <g clip-path="url(#pea4f0aaf14)">
     <use xlink:href="#m5061f88b35" x="73.832727" y="246.846864" style="stroke: #000000"/>
     <use xlink:href="#m5061f88b35" x="236.16" y="103.262273" style="stroke: #000000"/>
     <use xlink:href="#m5061f88b35" x="317.323636" y="88.148105" style="stroke: #000000"/>
     <use xlink:href="#m5061f88b35" x="398.487273" y="112.597494" style="stroke: #000000"/>
    </g>
   </g>
   <g id="PathCollection_5">
    <g clip-path="url(#pea4f0aaf14)">
     <use xlink:href="#m5061f88b35" x="154.996364" y="170.831492" style="stroke: #000000"/>
    </g>
   </g>
   <g id="PathCollection_6">
    <path d="M 154.996364 160.757737 
C 156.322379 160.757737 157.594263 160.230905 158.531898 159.293271 
C 159.469532 158.355636 159.996364 157.083752 159.996364 155.757737 
C 159.996364 154.431721 159.469532 153.159838 158.531898 152.222203 
C 157.594263 151.284568 156.322379 150.757737 154.996364 150.757737 
C 153.670348 150.757737 152.398464 151.284568 151.46083 152.222203 
C 150.523195 153.159838 149.996364 154.431721 149.996364 155.757737 
C 149.996364 157.083752 150.523195 158.355636 151.46083 159.293271 
C 152.398464 160.230905 153.670348 160.757737 154.996364 160.757737 
L 154.996364 160.757737 
z
" clip-path="url(#pea4f0aaf14)" style="fill: none; stroke: #000000"/>
   </g>
   <g id="PathCollection_7">
    <defs>
     <path id="m57ef57d8d2" d="M 0 3 
C 0.795609 3 1.55874 2.683901 2.12132 2.12132 
C 2.683901 1.55874 3 0.795609 3 0 
C 3 -0.795609 2.683901 -1.55874 2.12132 -2.12132 
C 1.55874 -2.683901 0.795609 -3 0 -3 
C -0.795609 -3 -1.55874 -2.683901 -2.12132 -2.12132 
C -2.683901 -1.55874 -3 -0.795609 -3 0 
C -3 0.795609 -2.683901 1.55874 -2.12132 2.12132 
C -1.55874 2.683901 -0.795609 3 0 3 
z
" style="stroke: #008000"/>
    </defs>
    <g clip-path="url(#pea4f0aaf14)">
     <use xlink:href="#m57ef57d8d2" x="73.832727" y="285.521351" style="fill: #008000; stroke: #008000"/>
     <use xlink:href="#m57ef57d8d2" x="236.16" y="274.852527" style="fill: #008000; stroke: #008000"/>
     <use xlink:href="#m57ef57d8d2" x="317.323636" y="268.629046" style="fill: #008000; stroke: #008000"/>
     <use xlink:href="#m57ef57d8d2" x="398.487273" y="274.852527" style="fill: #008000; stroke: #008000"/>
    </g>
   </g>
   <g id="PathCollection_8">
    <g clip-path="url(#pea4f0aaf14)">
     <use xlink:href="#m57ef57d8d2" x="154.996364" y="274.407993" style="fill: #008000; stroke: #008000"/>
    </g>
   </g>
   <g id="PathCollection_9">
    <path d="M 154.996364 282.519733 
C 156.322379 282.519733 157.594263 281.992902 158.531898 281.055267 
C 159.469532 280.117632 159.996364 278.845749 159.996364 277.519733 
C 159.996364 276.193718 159.469532 274.921834 158.531898 273.984199 
C 157.594263 273.046565 156.322379 272.519733 154.996364 272.519733 
C 153.670348 272.519733 152.398464 273.046565 151.46083 273.984199 
C 150.523195 274.921834 149.996364 276.193718 149.996364 277.519733 
C 149.996364 278.845749 150.523195 280.117632 151.46083 281.055267 
C 152.398464 281.992902 153.670348 282.519733 154.996364 282.519733 
L 154.996364 282.519733 
z
" clip-path="url(#pea4f0aaf14)" style="fill: none; stroke: #008000"/>
   </g>
   <g id="matplotlib.axis_1">
    <g id="xtick_1">
     <g id="line2d_1">
      <defs>
       <path id="ma08290f44c" d="M 0 0 
L 0 3.5 
" style="stroke: #000000; stroke-width: 0.8"/>
      </defs>
      <g>
       <use xlink:href="#ma08290f44c" x="73.832727" y="307.584" style="stroke: #000000; stroke-width: 0.8"/>
      </g>
     </g>
     <g id="text_1">
      <!-- 2019 -->
      <g transform="translate(58.562727 323.702125) scale(0.12 -0.12)">
       <defs>
        <path id="DejaVuSans-32" d="M 1228 531 
L 3431 531 
L 3431 0 
L 469 0 
L 469 531 
Q 828 903 1448 1529 
Q 2069 2156 2228 2338 
Q 2531 2678 2651 2914 
Q 2772 3150 2772 3378 
Q 2772 3750 2511 3984 
Q 2250 4219 1831 4219 
Q 1534 4219 1204 4116 
Q 875 4013 500 3803 
L 500 4441 
Q 881 4594 1212 4672 
Q 1544 4750 1819 4750 
Q 2544 4750 2975 4387 
Q 3406 4025 3406 3419 
Q 3406 3131 3298 2873 
Q 3191 2616 2906 2266 
Q 2828 2175 2409 1742 
Q 1991 1309 1228 531 
z
" transform="scale(0.015625)"/>
        <path id="DejaVuSans-30" d="M 2034 4250 
Q 1547 4250 1301 3770 
Q 1056 3291 1056 2328 
Q 1056 1369 1301 889 
Q 1547 409 2034 409 
Q 2525 409 2770 889 
Q 3016 1369 3016 2328 
Q 3016 3291 2770 3770 
Q 2525 4250 2034 4250 
z
M 2034 4750 
Q 2819 4750 3233 4129 
Q 3647 3509 3647 2328 
Q 3647 1150 3233 529 
Q 2819 -91 2034 -91 
Q 1250 -91 836 529 
Q 422 1150 422 2328 
Q 422 3509 836 4129 
Q 1250 4750 2034 4750 
z
" transform="scale(0.015625)"/>
        <path id="DejaVuSans-31" d="M 794 531 
L 1825 531 
L 1825 4091 
L 703 3866 
L 703 4441 
L 1819 4666 
L 2450 4666 
L 2450 531 
L 3481 531 
L 3481 0 
L 794 0 
L 794 531 
z
" transform="scale(0.015625)"/>
        <path id="DejaVuSans-39" d="M 703 97 
L 703 672 
Q 941 559 1184 500 
Q 1428 441 1663 441 
Q 2288 441 2617 861 
Q 2947 1281 2994 2138 
Q 2813 1869 2534 1725 
Q 2256 1581 1919 1581 
Q 1219 1581 811 2004 
Q 403 2428 403 3163 
Q 403 3881 828 4315 
Q 1253 4750 1959 4750 
Q 2769 4750 3195 4129 
Q 3622 3509 3622 2328 
Q 3622 1225 3098 567 
Q 2575 -91 1691 -91 
Q 1453 -91 1209 -44 
Q 966 3 703 97 
z
M 1959 2075 
Q 2384 2075 2632 2365 
Q 2881 2656 2881 3163 
Q 2881 3666 2632 3958 
Q 2384 4250 1959 4250 
Q 1534 4250 1286 3958 
Q 1038 3666 1038 3163 
Q 1038 2656 1286 2365 
Q 1534 2075 1959 2075 
z
" transform="scale(0.015625)"/>
       </defs>
       <use xlink:href="#DejaVuSans-32"/>
       <use xlink:href="#DejaVuSans-30" x="63.623047"/>
       <use xlink:href="#DejaVuSans-31" x="127.246094"/>
       <use xlink:href="#DejaVuSans-39" x="190.869141"/>
      </g>
     </g>
    </g>
    <g id="xtick_2">
     <g id="line2d_2">
      <g>
       <use xlink:href="#ma08290f44c" x="154.996364" y="307.584" style="stroke: #000000; stroke-width: 0.8"/>
      </g>
     </g>
     <g id="text_2">
      <!-- 2020 -->
      <g transform="translate(139.726364 323.702125) scale(0.12 -0.12)">
       <use xlink:href="#DejaVuSans-32"/>
       <use xlink:href="#DejaVuSans-30" x="63.623047"/>
       <use xlink:href="#DejaVuSans-32" x="127.246094"/>
       <use xlink:href="#DejaVuSans-30" x="190.869141"/>
      </g>
     </g>
    </g>
    <g id="xtick_3">
     <g id="line2d_3">
      <g>
       <use xlink:href="#ma08290f44c" x="236.16" y="307.584" style="stroke: #000000; stroke-width: 0.8"/>
      </g>
     </g>
     <g id="text_3">
      <!-- 2021 -->
      <g transform="translate(220.89 323.702125) scale(0.12 -0.12)">
       <use xlink:href="#DejaVuSans-32"/>
       <use xlink:href="#DejaVuSans-30" x="63.623047"/>
       <use xlink:href="#DejaVuSans-32" x="127.246094"/>
       <use xlink:href="#DejaVuSans-31" x="190.869141"/>
      </g>
     </g>
    </g>
    <g id="xtick_4">
     <g id="line2d_4">
      <g>
       <use xlink:href="#ma08290f44c" x="317.323636" y="307.584" style="stroke: #000000; stroke-width: 0.8"/>
      </g>
     </g>
     <g id="text_4">
      <!-- 2022 -->
      <g transform="translate(302.053636 323.702125) scale(0.12 -0.12)">
       <use xlink:href="#DejaVuSans-32"/>
       <use xlink:href="#DejaVuSans-30" x="63.623047"/>
       <use xlink:href="#DejaVuSans-32" x="127.246094"/>
       <use xlink:href="#DejaVuSans-32" x="190.869141"/>
      </g>
     </g>
    </g>
    <g id="xtick_5">
     <g id="line2d_5">
      <g>
       <use xlink:href="#ma08290f44c" x="398.487273" y="307.584" style="stroke: #000000; stroke-width: 0.8"/>
      </g>
     </g>
     <g id="text_5">
      <!-- 2023 -->
      <g transform="translate(383.217273 323.702125) scale(0.12 -0.12)">
       <defs>
        <path id="DejaVuSans-33" d="M 2597 2516 
Q 3050 2419 3304 2112 
Q 3559 1806 3559 1356 
Q 3559 666 3084 287 
Q 2609 -91 1734 -91 
Q 1441 -91 1130 -33 
Q 819 25 488 141 
L 488 750 
Q 750 597 1062 519 
Q 1375 441 1716 441 
Q 2309 441 2620 675 
Q 2931 909 2931 1356 
Q 2931 1769 2642 2001 
Q 2353 2234 1838 2234 
L 1294 2234 
L 1294 2753 
L 1863 2753 
Q 2328 2753 2575 2939 
Q 2822 3125 2822 3475 
Q 2822 3834 2567 4026 
Q 2313 4219 1838 4219 
Q 1578 4219 1281 4162 
Q 984 4106 628 3988 
L 628 4550 
Q 988 4650 1302 4700 
Q 1616 4750 1894 4750 
Q 2613 4750 3031 4423 
Q 3450 4097 3450 3541 
Q 3450 3153 3228 2886 
Q 3006 2619 2597 2516 
z
" transform="scale(0.015625)"/>
       </defs>
       <use xlink:href="#DejaVuSans-32"/>
       <use xlink:href="#DejaVuSans-30" x="63.623047"/>
       <use xlink:href="#DejaVuSans-32" x="127.246094"/>
       <use xlink:href="#DejaVuSans-33" x="190.869141"/>
      </g>
     </g>
    </g>
    <g id="text_6">
     <!-- year -->
     <g transform="translate(220.542344 340.835562) scale(0.14 -0.14)">
      <defs>
       <path id="DejaVuSans-79" d="M 2059 -325 
Q 1816 -950 1584 -1140 
Q 1353 -1331 966 -1331 
L 506 -1331 
L 506 -850 
L 844 -850 
Q 1081 -850 1212 -737 
Q 1344 -625 1503 -206 
L 1606 56 
L 191 3500 
L 800 3500 
L 1894 763 
L 2988 3500 
L 3597 3500 
L 2059 -325 
z
" transform="scale(0.015625)"/>
       <path id="DejaVuSans-65" d="M 3597 1894 
L 3597 1613 
L 953 1613 
Q 991 1019 1311 708 
Q 1631 397 2203 397 
Q 2534 397 2845 478 
Q 3156 559 3463 722 
L 3463 178 
Q 3153 47 2828 -22 
Q 2503 -91 2169 -91 
Q 1331 -91 842 396 
Q 353 884 353 1716 
Q 353 2575 817 3079 
Q 1281 3584 2069 3584 
Q 2775 3584 3186 3129 
Q 3597 2675 3597 1894 
z
M 3022 2063 
Q 3016 2534 2758 2815 
Q 2500 3097 2075 3097 
Q 1594 3097 1305 2825 
Q 1016 2553 972 2059 
L 3022 2063 
z
" transform="scale(0.015625)"/>
       <path id="DejaVuSans-61" d="M 2194 1759 
Q 1497 1759 1228 1600 
Q 959 1441 959 1056 
Q 959 750 1161 570 
Q 1363 391 1709 391 
Q 2188 391 2477 730 
Q 2766 1069 2766 1631 
L 2766 1759 
L 2194 1759 
z
M 3341 1997 
L 3341 0 
L 2766 0 
L 2766 531 
Q 2569 213 2275 61 
Q 1981 -91 1556 -91 
Q 1019 -91 701 211 
Q 384 513 384 1019 
Q 384 1609 779 1909 
Q 1175 2209 1959 2209 
L 2766 2209 
L 2766 2266 
Q 2766 2663 2505 2880 
Q 2244 3097 1772 3097 
Q 1472 3097 1187 3025 
Q 903 2953 641 2809 
L 641 3341 
Q 956 3463 1253 3523 
Q 1550 3584 1831 3584 
Q 2591 3584 2966 3190 
Q 3341 2797 3341 1997 
z
" transform="scale(0.015625)"/>
       <path id="DejaVuSans-72" d="M 2631 2963 
Q 2534 3019 2420 3045 
Q 2306 3072 2169 3072 
Q 1681 3072 1420 2755 
Q 1159 2438 1159 1844 
L 1159 0 
L 581 0 
L 581 3500 
L 1159 3500 
L 1159 2956 
Q 1341 3275 1631 3429 
Q 1922 3584 2338 3584 
Q 2397 3584 2469 3576 
Q 2541 3569 2628 3553 
L 2631 2963 
z
" transform="scale(0.015625)"/>
      </defs>
      <use xlink:href="#DejaVuSans-79"/>
      <use xlink:href="#DejaVuSans-65" x="59.179688"/>
      <use xlink:href="#DejaVuSans-61" x="120.703125"/>
      <use xlink:href="#DejaVuSans-72" x="181.982422"/>
     </g>
    </g>
   </g>
   <g id="matplotlib.axis_2">
    <g id="ytick_1">
     <g id="line2d_6">
      <defs>
       <path id="mbbb11efc45" d="M 0 0 
L -3.5 0 
" style="stroke: #000000; stroke-width: 0.8"/>
      </defs>
      <g>
       <use xlink:href="#mbbb11efc45" x="57.6" y="263.739169" style="stroke: #000000; stroke-width: 0.8"/>
      </g>
     </g>
     <g id="text_7">
      <!-- 6.3 -->
      <g transform="translate(31.51625 268.298231) scale(0.12 -0.12)">
       <defs>
        <path id="DejaVuSans-36" d="M 2113 2584 
Q 1688 2584 1439 2293 
Q 1191 2003 1191 1497 
Q 1191 994 1439 701 
Q 1688 409 2113 409 
Q 2538 409 2786 701 
Q 3034 994 3034 1497 
Q 3034 2003 2786 2293 
Q 2538 2584 2113 2584 
z
M 3366 4563 
L 3366 3988 
Q 3128 4100 2886 4159 
Q 2644 4219 2406 4219 
Q 1781 4219 1451 3797 
Q 1122 3375 1075 2522 
Q 1259 2794 1537 2939 
Q 1816 3084 2150 3084 
Q 2853 3084 3261 2657 
Q 3669 2231 3669 1497 
Q 3669 778 3244 343 
Q 2819 -91 2113 -91 
Q 1303 -91 875 529 
Q 447 1150 447 2328 
Q 447 3434 972 4092 
Q 1497 4750 2381 4750 
Q 2619 4750 2861 4703 
Q 3103 4656 3366 4563 
z
" transform="scale(0.015625)"/>
        <path id="DejaVuSans-2e" d="M 684 794 
L 1344 794 
L 1344 0 
L 684 0 
L 684 794 
z
" transform="scale(0.015625)"/>
       </defs>
       <use xlink:href="#DejaVuSans-36"/>
       <use xlink:href="#DejaVuSans-2e" x="63.623047"/>
       <use xlink:href="#DejaVuSans-33" x="95.410156"/>
      </g>
     </g>
    </g>
    <g id="ytick_2">
     <g id="line2d_7">
      <g>
       <use xlink:href="#mbbb11efc45" x="57.6" y="219.285735" style="stroke: #000000; stroke-width: 0.8"/>
      </g>
     </g>
     <g id="text_8">
      <!-- 16.3 -->
      <g transform="translate(23.88125 223.844797) scale(0.12 -0.12)">
       <use xlink:href="#DejaVuSans-31"/>
       <use xlink:href="#DejaVuSans-36" x="63.623047"/>
       <use xlink:href="#DejaVuSans-2e" x="127.246094"/>
       <use xlink:href="#DejaVuSans-33" x="159.033203"/>
      </g>
     </g>
    </g>
    <g id="ytick_3">
     <g id="line2d_8">
      <g>
       <use xlink:href="#mbbb11efc45" x="57.6" y="174.832301" style="stroke: #000000; stroke-width: 0.8"/>
      </g>
     </g>
     <g id="text_9">
      <!-- 26.3 -->
      <g transform="translate(23.88125 179.391364) scale(0.12 -0.12)">
       <use xlink:href="#DejaVuSans-32"/>
       <use xlink:href="#DejaVuSans-36" x="63.623047"/>
       <use xlink:href="#DejaVuSans-2e" x="127.246094"/>
       <use xlink:href="#DejaVuSans-33" x="159.033203"/>
      </g>
     </g>
    </g>
    <g id="ytick_4">
     <g id="line2d_9">
      <g>
       <use xlink:href="#mbbb11efc45" x="57.6" y="130.378867" style="stroke: #000000; stroke-width: 0.8"/>
      </g>
     </g>
     <g id="text_10">
      <!-- 36.3 -->
      <g transform="translate(23.88125 134.93793) scale(0.12 -0.12)">
       <use xlink:href="#DejaVuSans-33"/>
       <use xlink:href="#DejaVuSans-36" x="63.623047"/>
       <use xlink:href="#DejaVuSans-2e" x="127.246094"/>
       <use xlink:href="#DejaVuSans-33" x="159.033203"/>
      </g>
     </g>
    </g>
    <g id="ytick_5">
     <g id="line2d_10">
      <g>
       <use xlink:href="#mbbb11efc45" x="57.6" y="85.925434" style="stroke: #000000; stroke-width: 0.8"/>
      </g>
     </g>
     <g id="text_11">
      <!-- 46.3 -->
      <g transform="translate(23.88125 90.484496) scale(0.12 -0.12)">
       <defs>
        <path id="DejaVuSans-34" d="M 2419 4116 
L 825 1625 
L 2419 1625 
L 2419 4116 
z
M 2253 4666 
L 3047 4666 
L 3047 1625 
L 3713 1625 
L 3713 1100 
L 3047 1100 
L 3047 0 
L 2419 0 
L 2419 1100 
L 313 1100 
L 313 1709 
L 2253 4666 
z
" transform="scale(0.015625)"/>
       </defs>
       <use xlink:href="#DejaVuSans-34"/>
       <use xlink:href="#DejaVuSans-36" x="63.623047"/>
       <use xlink:href="#DejaVuSans-2e" x="127.246094"/>
       <use xlink:href="#DejaVuSans-33" x="159.033203"/>
      </g>
     </g>
    </g>
    <g id="ytick_6">
     <g id="line2d_11">
      <g>
       <use xlink:href="#mbbb11efc45" x="57.6" y="41.472" style="stroke: #000000; stroke-width: 0.8"/>
      </g>
     </g>
     <g id="text_12">
      <!-- 56.3 -->
      <g transform="translate(23.88125 46.031063) scale(0.12 -0.12)">
       <defs>
        <path id="DejaVuSans-35" d="M 691 4666 
L 3169 4666 
L 3169 4134 
L 1269 4134 
L 1269 2991 
Q 1406 3038 1543 3061 
Q 1681 3084 1819 3084 
Q 2600 3084 3056 2656 
Q 3513 2228 3513 1497 
Q 3513 744 3044 326 
Q 2575 -91 1722 -91 
Q 1428 -91 1123 -41 
Q 819 9 494 109 
L 494 744 
Q 775 591 1075 516 
Q 1375 441 1709 441 
Q 2250 441 2565 725 
Q 2881 1009 2881 1497 
Q 2881 1984 2565 2268 
Q 2250 2553 1709 2553 
Q 1456 2553 1204 2497 
Q 953 2441 691 2322 
L 691 4666 
z
" transform="scale(0.015625)"/>
       </defs>
       <use xlink:href="#DejaVuSans-35"/>
       <use xlink:href="#DejaVuSans-36" x="63.623047"/>
       <use xlink:href="#DejaVuSans-2e" x="127.246094"/>
       <use xlink:href="#DejaVuSans-33" x="159.033203"/>
      </g>
     </g>
    </g>
    <g id="text_13">
     <!-- crude rate -->
     <g transform="translate(16.969687 210.885344) rotate(-90) scale(0.14 -0.14)">
      <defs>
       <path id="DejaVuSans-63" d="M 3122 3366 
L 3122 2828 
Q 2878 2963 2633 3030 
Q 2388 3097 2138 3097 
Q 1578 3097 1268 2742 
Q 959 2388 959 1747 
Q 959 1106 1268 751 
Q 1578 397 2138 397 
Q 2388 397 2633 464 
Q 2878 531 3122 666 
L 3122 134 
Q 2881 22 2623 -34 
Q 2366 -91 2075 -91 
Q 1284 -91 818 406 
Q 353 903 353 1747 
Q 353 2603 823 3093 
Q 1294 3584 2113 3584 
Q 2378 3584 2631 3529 
Q 2884 3475 3122 3366 
z
" transform="scale(0.015625)"/>
       <path id="DejaVuSans-75" d="M 544 1381 
L 544 3500 
L 1119 3500 
L 1119 1403 
Q 1119 906 1312 657 
Q 1506 409 1894 409 
Q 2359 409 2629 706 
Q 2900 1003 2900 1516 
L 2900 3500 
L 3475 3500 
L 3475 0 
L 2900 0 
L 2900 538 
Q 2691 219 2414 64 
Q 2138 -91 1772 -91 
Q 1169 -91 856 284 
Q 544 659 544 1381 
z
M 1991 3584 
L 1991 3584 
z
" transform="scale(0.015625)"/>
       <path id="DejaVuSans-64" d="M 2906 2969 
L 2906 4863 
L 3481 4863 
L 3481 0 
L 2906 0 
L 2906 525 
Q 2725 213 2448 61 
Q 2172 -91 1784 -91 
Q 1150 -91 751 415 
Q 353 922 353 1747 
Q 353 2572 751 3078 
Q 1150 3584 1784 3584 
Q 2172 3584 2448 3432 
Q 2725 3281 2906 2969 
z
M 947 1747 
Q 947 1113 1208 752 
Q 1469 391 1925 391 
Q 2381 391 2643 752 
Q 2906 1113 2906 1747 
Q 2906 2381 2643 2742 
Q 2381 3103 1925 3103 
Q 1469 3103 1208 2742 
Q 947 2381 947 1747 
z
" transform="scale(0.015625)"/>
       <path id="DejaVuSans-20" transform="scale(0.015625)"/>
       <path id="DejaVuSans-74" d="M 1172 4494 
L 1172 3500 
L 2356 3500 
L 2356 3053 
L 1172 3053 
L 1172 1153 
Q 1172 725 1289 603 
Q 1406 481 1766 481 
L 2356 481 
L 2356 0 
L 1766 0 
Q 1100 0 847 248 
Q 594 497 594 1153 
L 594 3053 
L 172 3053 
L 172 3500 
L 594 3500 
L 594 4494 
L 1172 4494 
z
" transform="scale(0.015625)"/>
      </defs>
      <use xlink:href="#DejaVuSans-63"/>
      <use xlink:href="#DejaVuSans-72" x="54.980469"/>
      <use xlink:href="#DejaVuSans-75" x="96.09375"/>
      <use xlink:href="#DejaVuSans-64" x="159.472656"/>
      <use xlink:href="#DejaVuSans-65" x="222.949219"/>
      <use xlink:href="#DejaVuSans-20" x="284.472656"/>
      <use xlink:href="#DejaVuSans-72" x="316.259766"/>
      <use xlink:href="#DejaVuSans-61" x="357.373047"/>
      <use xlink:href="#DejaVuSans-74" x="418.652344"/>
      <use xlink:href="#DejaVuSans-65" x="457.861328"/>
     </g>
    </g>
   </g>
   <g id="line2d_12">
    <path d="M 73.832727 259.370609 
L 81.433335 252.086561 
L 89.033943 245.078056 
L 96.634552 238.345091 
L 104.23516 231.887668 
L 111.835768 225.705786 
L 119.436376 219.799446 
L 127.036984 214.168647 
L 134.637592 208.813389 
L 142.2382 203.733672 
L 149.838808 198.929497 
L 157.439416 194.400863 
L 165.040024 190.14777 
L 172.640632 186.170219 
L 180.24124 182.468208 
L 187.841849 179.04174 
L 195.442457 175.890812 
L 203.043065 173.015426 
L 209.557872 170.770118 
L 216.072679 168.727248 
L 222.587486 166.886817 
L 229.102292 165.248824 
L 235.617099 163.81327 
L 242.131906 162.580154 
L 248.646713 161.549476 
L 255.16152 160.721238 
L 261.676327 160.095437 
L 268.191134 159.672076 
L 274.705941 159.451152 
L 281.220748 159.432668 
L 287.735555 159.616622 
L 294.250362 160.003014 
L 300.765169 160.591845 
L 307.279976 161.383114 
L 313.794783 162.376822 
L 320.30959 163.572968 
L 326.824396 164.971553 
L 333.339203 166.572576 
L 339.85401 168.376038 
L 346.368817 170.381939 
L 352.883624 172.590278 
L 359.398431 175.001055 
L 366.999039 178.069488 
L 374.599647 181.413463 
L 382.200255 185.032979 
L 389.800863 188.928036 
L 397.401472 193.098635 
L 398.487273 193.716928 
L 398.487273 193.716928 
" clip-path="url(#pea4f0aaf14)" style="fill: none; stroke: #ffa500; stroke-width: 1.5; stroke-linecap: square"/>
   </g>
   <g id="line2d_13">
    <path d="M 73.832727 246.895359 
L 81.433335 236.733184 
L 89.033943 226.907329 
L 96.634552 217.417794 
L 104.23516 208.264579 
L 111.835768 199.447684 
L 119.436376 190.967108 
L 127.036984 182.822853 
L 134.637592 175.014917 
L 142.2382 167.543301 
L 149.838808 160.408006 
L 157.439416 153.60903 
L 165.040024 147.146373 
L 171.554831 141.874637 
L 178.069638 136.849993 
L 184.584445 132.072441 
L 191.099252 127.541981 
L 197.614059 123.258613 
L 204.128866 119.222337 
L 210.643673 115.433154 
L 217.15848 111.891062 
L 223.673287 108.596063 
L 230.188094 105.548156 
L 236.702901 102.747341 
L 243.217708 100.193619 
L 249.732514 97.886988 
L 256.247321 95.827449 
L 262.762128 94.015003 
L 269.276935 92.449649 
L 275.791742 91.131387 
L 282.306549 90.060217 
L 288.821356 89.236139 
L 295.336163 88.659154 
L 301.85097 88.329261 
L 308.365777 88.246459 
L 314.880584 88.41075 
L 321.395391 88.822133 
L 327.910198 89.480608 
L 334.425005 90.386176 
L 340.939811 91.538835 
L 347.454618 92.938587 
L 353.969425 94.585431 
L 360.484232 96.479367 
L 366.999039 98.620395 
L 373.513846 101.008515 
L 380.028653 103.643727 
L 386.54346 106.526032 
L 393.058267 109.655429 
L 398.487273 112.45201 
L 398.487273 112.45201 
" clip-path="url(#pea4f0aaf14)" style="fill: none; stroke: #000000; stroke-width: 1.5; stroke-linecap: square"/>
   </g>
   <g id="line2d_14">
    <path d="M 73.832727 285.876979 
L 94.462949 283.415642 
L 115.093171 281.184069 
L 135.723393 279.182259 
L 156.353615 277.410212 
L 176.983837 275.867928 
L 197.614059 274.555406 
L 218.244281 273.472648 
L 238.874503 272.619653 
L 259.504725 271.996421 
L 280.134947 271.602952 
L 300.765169 271.439246 
L 321.395391 271.505303 
L 342.025613 271.801122 
L 362.655835 272.326705 
L 383.286057 273.082051 
L 398.487273 273.785645 
L 398.487273 273.785645 
" clip-path="url(#pea4f0aaf14)" style="fill: none; stroke: #008000; stroke-width: 1.5; stroke-linecap: square"/>
   </g>
   <g id="line2d_15">
    <path d="M 73.832727 228.980789 
L 81.433335 221.696742 
L 89.033943 214.688236 
L 96.634552 207.955271 
L 104.23516 201.497848 
L 111.835768 195.315966 
L 119.436376 189.409626 
L 127.036984 183.778827 
L 134.637592 178.423569 
L 142.2382 173.343852 
L 149.838808 168.539677 
L 157.439416 164.011043 
L 165.040024 159.75795 
L 172.640632 155.780399 
L 180.24124 152.078389 
L 187.841849 148.65192 
L 195.442457 145.500992 
L 203.043065 142.625606 
L 209.557872 140.380298 
L 216.072679 138.337428 
L 222.587486 136.496997 
L 229.102292 134.859004 
L 235.617099 133.42345 
L 242.131906 132.190334 
L 248.646713 131.159657 
L 255.16152 130.331418 
L 261.676327 129.705618 
L 268.191134 129.282256 
L 274.705941 129.061333 
L 281.220748 129.042848 
L 287.735555 129.226802 
L 294.250362 129.613194 
L 300.765169 130.202025 
L 307.279976 130.993294 
L 313.794783 131.987002 
L 320.30959 133.183148 
L 326.824396 134.581733 
L 333.339203 136.182757 
L 339.85401 137.986218 
L 346.368817 139.992119 
L 352.883624 142.200458 
L 359.398431 144.611235 
L 366.999039 147.679668 
L 374.599647 151.023643 
L 382.200255 154.643159 
L 389.800863 158.538217 
L 397.401472 162.708815 
L 398.487273 163.327108 
L 398.487273 163.327108 
" clip-path="url(#pea4f0aaf14)" style="fill: none; stroke-dasharray: 5.55,2.4; stroke-dashoffset: 0; stroke: #ffa500; stroke-width: 1.5"/>
   </g>
   <g id="line2d_16">
    <path d="M 73.832727 289.760428 
L 81.433335 282.476381 
L 89.033943 275.467876 
L 96.634552 268.734911 
L 104.23516 262.277488 
L 111.835768 256.095606 
L 119.436376 250.189266 
L 127.036984 244.558466 
L 134.637592 239.203208 
L 142.2382 234.123492 
L 149.838808 229.319317 
L 157.439416 224.790683 
L 165.040024 220.53759 
L 172.640632 216.560038 
L 180.24124 212.858028 
L 187.841849 209.43156 
L 195.442457 206.280632 
L 203.043065 203.405246 
L 209.557872 201.159938 
L 216.072679 199.117068 
L 222.587486 197.276636 
L 229.102292 195.638644 
L 235.617099 194.203089 
L 242.131906 192.969974 
L 248.646713 191.939296 
L 255.16152 191.111058 
L 261.676327 190.485257 
L 268.191134 190.061896 
L 274.705941 189.840972 
L 281.220748 189.822488 
L 287.735555 190.006441 
L 294.250362 190.392834 
L 300.765169 190.981665 
L 307.279976 191.772934 
L 313.794783 192.766642 
L 320.30959 193.962788 
L 326.824396 195.361373 
L 333.339203 196.962396 
L 339.85401 198.765858 
L 346.368817 200.771759 
L 352.883624 202.980097 
L 359.398431 205.390875 
L 366.999039 208.459308 
L 374.599647 211.803283 
L 382.200255 215.422799 
L 389.800863 219.317856 
L 397.401472 223.488455 
L 398.487273 224.106748 
L 398.487273 224.106748 
" clip-path="url(#pea4f0aaf14)" style="fill: none; stroke-dasharray: 5.55,2.4; stroke-dashoffset: 0; stroke: #ffa500; stroke-width: 1.5"/>
   </g>
   <g id="line2d_17">
    <path d="M 73.832727 245.36951 
L 81.433335 235.207335 
L 89.033943 225.38148 
L 96.634552 215.891945 
L 104.23516 206.73873 
L 111.835768 197.921835 
L 119.436376 189.44126 
L 127.036984 181.297004 
L 134.637592 173.489069 
L 142.2382 166.017453 
L 149.838808 158.882157 
L 157.439416 152.083181 
L 165.040024 145.620525 
L 171.554831 140.348788 
L 178.069638 135.324144 
L 184.584445 130.546592 
L 191.099252 126.016132 
L 197.614059 121.732764 
L 204.128866 117.696489 
L 210.643673 113.907305 
L 217.15848 110.365214 
L 223.673287 107.070215 
L 230.188094 104.022308 
L 236.702901 101.221493 
L 243.217708 98.66777 
L 249.732514 96.361139 
L 256.247321 94.301601 
L 262.762128 92.489155 
L 269.276935 90.9238 
L 275.791742 89.605538 
L 282.306549 88.534369 
L 288.821356 87.710291 
L 295.336163 87.133305 
L 301.85097 86.803412 
L 308.365777 86.720611 
L 314.880584 86.884901 
L 321.395391 87.296285 
L 327.910198 87.95476 
L 334.425005 88.860327 
L 340.939811 90.012987 
L 347.454618 91.412738 
L 353.969425 93.059582 
L 360.484232 94.953518 
L 366.999039 97.094546 
L 373.513846 99.482666 
L 380.028653 102.117879 
L 386.54346 105.000183 
L 393.058267 108.12958 
L 398.487273 110.926161 
L 398.487273 110.926161 
" clip-path="url(#pea4f0aaf14)" style="fill: none; stroke-dasharray: 5.55,2.4; stroke-dashoffset: 0; stroke: #000000; stroke-width: 1.5"/>
   </g>
   <g id="line2d_18">
    <path d="M 73.832727 248.421207 
L 81.433335 238.259033 
L 89.033943 228.433178 
L 96.634552 218.943643 
L 104.23516 209.790428 
L 111.835768 200.973532 
L 119.436376 192.492957 
L 127.036984 184.348701 
L 134.637592 176.540766 
L 142.2382 169.06915 
L 149.838808 161.933854 
L 157.439416 155.134878 
L 165.040024 148.672222 
L 171.554831 143.400486 
L 178.069638 138.375841 
L 184.584445 133.598289 
L 191.099252 129.067829 
L 197.614059 124.784462 
L 204.128866 120.748186 
L 210.643673 116.959002 
L 217.15848 113.416911 
L 223.673287 110.121912 
L 230.188094 107.074005 
L 236.702901 104.27319 
L 243.217708 101.719467 
L 249.732514 99.412837 
L 256.247321 97.353298 
L 262.762128 95.540852 
L 269.276935 93.975498 
L 275.791742 92.657236 
L 282.306549 91.586066 
L 288.821356 90.761988 
L 295.336163 90.185003 
L 301.85097 89.855109 
L 308.365777 89.772308 
L 314.880584 89.936599 
L 321.395391 90.347982 
L 327.910198 91.006457 
L 334.425005 91.912024 
L 340.939811 93.064684 
L 347.454618 94.464436 
L 353.969425 96.111279 
L 360.484232 98.005215 
L 366.999039 100.146243 
L 373.513846 102.534364 
L 380.028653 105.169576 
L 386.54346 108.051881 
L 393.058267 111.181277 
L 398.487273 113.977859 
L 398.487273 113.977859 
" clip-path="url(#pea4f0aaf14)" style="fill: none; stroke-dasharray: 5.55,2.4; stroke-dashoffset: 0; stroke: #000000; stroke-width: 1.5"/>
   </g>
   <g id="line2d_19">
    <path d="M 73.832727 274.687422 
L 94.462949 272.226085 
L 115.093171 269.994512 
L 135.723393 267.992702 
L 156.353615 266.220655 
L 176.983837 264.678371 
L 197.614059 263.365849 
L 218.244281 262.283091 
L 238.874503 261.430096 
L 259.504725 260.806864 
L 280.134947 260.413395 
L 300.765169 260.249689 
L 321.395391 260.315745 
L 342.025613 260.611565 
L 362.655835 261.137148 
L 383.286057 261.892494 
L 398.487273 262.596088 
L 398.487273 262.596088 
" clip-path="url(#pea4f0aaf14)" style="fill: none; stroke-dasharray: 5.55,2.4; stroke-dashoffset: 0; stroke: #008000; stroke-width: 1.5"/>
   </g>
   <g id="line2d_20">
    <path d="M 73.832727 297.066536 
L 94.462949 294.6052 
L 115.093171 292.373626 
L 135.723393 290.371816 
L 156.353615 288.599769 
L 176.983837 287.057485 
L 197.614059 285.744964 
L 218.244281 284.662205 
L 238.874503 283.80921 
L 259.504725 283.185978 
L 280.134947 282.792509 
L 300.765169 282.628803 
L 321.395391 282.69486 
L 342.025613 282.99068 
L 362.655835 283.516262 
L 383.286057 284.271608 
L 398.487273 284.975202 
L 398.487273 284.975202 
" clip-path="url(#pea4f0aaf14)" style="fill: none; stroke-dasharray: 5.55,2.4; stroke-dashoffset: 0; stroke: #008000; stroke-width: 1.5"/>
   </g>
   <g id="patch_3">
    <path d="M 57.6 307.584 
L 57.6 41.472 
" style="fill: none; stroke: #000000; stroke-width: 0.8; stroke-linejoin: miter; stroke-linecap: square"/>
   </g>
   <g id="patch_4">
    <path d="M 414.72 307.584 
L 414.72 41.472 
" style="fill: none; stroke: #000000; stroke-width: 0.8; stroke-linejoin: miter; stroke-linecap: square"/>
   </g>
   <g id="patch_5">
    <path d="M 57.6 307.584 
L 414.72 307.584 
" style="fill: none; stroke: #000000; stroke-width: 0.8; stroke-linejoin: miter; stroke-linecap: square"/>
   </g>
   <g id="patch_6">
    <path d="M 57.6 41.472 
L 414.72 41.472 
" style="fill: none; stroke: #000000; stroke-width: 0.8; stroke-linejoin: miter; stroke-linecap: square"/>
   </g>
   <g id="legend_1">
    <g id="line2d_21">
     <path d="M 70.2 59.809812 
L 84.2 59.809812 
L 98.2 59.809812 
" style="fill: none; stroke: #ffa500; stroke-width: 1.5; stroke-linecap: square"/>
    </g>
    <g id="text_14">
     <!-- White -->
     <g transform="translate(109.4 64.709812) scale(0.14 -0.14)">
      <defs>
       <path id="DejaVuSans-57" d="M 213 4666 
L 850 4666 
L 1831 722 
L 2809 4666 
L 3519 4666 
L 4500 722 
L 5478 4666 
L 6119 4666 
L 4947 0 
L 4153 0 
L 3169 4050 
L 2175 0 
L 1381 0 
L 213 4666 
z
" transform="scale(0.015625)"/>
       <path id="DejaVuSans-68" d="M 3513 2113 
L 3513 0 
L 2938 0 
L 2938 2094 
Q 2938 2591 2744 2837 
Q 2550 3084 2163 3084 
Q 1697 3084 1428 2787 
Q 1159 2491 1159 1978 
L 1159 0 
L 581 0 
L 581 4863 
L 1159 4863 
L 1159 2956 
Q 1366 3272 1645 3428 
Q 1925 3584 2291 3584 
Q 2894 3584 3203 3211 
Q 3513 2838 3513 2113 
z
" transform="scale(0.015625)"/>
       <path id="DejaVuSans-69" d="M 603 3500 
L 1178 3500 
L 1178 0 
L 603 0 
L 603 3500 
z
M 603 4863 
L 1178 4863 
L 1178 4134 
L 603 4134 
L 603 4863 
z
" transform="scale(0.015625)"/>
      </defs>
      <use xlink:href="#DejaVuSans-57"/>
      <use xlink:href="#DejaVuSans-68" x="98.876953"/>
      <use xlink:href="#DejaVuSans-69" x="162.255859"/>
      <use xlink:href="#DejaVuSans-74" x="190.039062"/>
      <use xlink:href="#DejaVuSans-65" x="229.248047"/>
     </g>
    </g>
    <g id="line2d_22">
     <path d="M 70.2 80.359187 
L 84.2 80.359187 
L 98.2 80.359187 
" style="fill: none; stroke: #000000; stroke-width: 1.5; stroke-linecap: square"/>
    </g>
    <g id="text_15">
     <!-- Black -->
     <g transform="translate(109.4 85.259187) scale(0.14 -0.14)">
      <defs>
       <path id="DejaVuSans-42" d="M 1259 2228 
L 1259 519 
L 2272 519 
Q 2781 519 3026 730 
Q 3272 941 3272 1375 
Q 3272 1813 3026 2020 
Q 2781 2228 2272 2228 
L 1259 2228 
z
M 1259 4147 
L 1259 2741 
L 2194 2741 
Q 2656 2741 2882 2914 
Q 3109 3088 3109 3444 
Q 3109 3797 2882 3972 
Q 2656 4147 2194 4147 
L 1259 4147 
z
M 628 4666 
L 2241 4666 
Q 2963 4666 3353 4366 
Q 3744 4066 3744 3513 
Q 3744 3084 3544 2831 
Q 3344 2578 2956 2516 
Q 3422 2416 3680 2098 
Q 3938 1781 3938 1306 
Q 3938 681 3513 340 
Q 3088 0 2303 0 
L 628 0 
L 628 4666 
z
" transform="scale(0.015625)"/>
       <path id="DejaVuSans-6c" d="M 603 4863 
L 1178 4863 
L 1178 0 
L 603 0 
L 603 4863 
z
" transform="scale(0.015625)"/>
       <path id="DejaVuSans-6b" d="M 581 4863 
L 1159 4863 
L 1159 1991 
L 2875 3500 
L 3609 3500 
L 1753 1863 
L 3688 0 
L 2938 0 
L 1159 1709 
L 1159 0 
L 581 0 
L 581 4863 
z
" transform="scale(0.015625)"/>
      </defs>
      <use xlink:href="#DejaVuSans-42"/>
      <use xlink:href="#DejaVuSans-6c" x="68.603516"/>
      <use xlink:href="#DejaVuSans-61" x="96.386719"/>
      <use xlink:href="#DejaVuSans-63" x="157.666016"/>
      <use xlink:href="#DejaVuSans-6b" x="212.646484"/>
     </g>
    </g>
    <g id="line2d_23">
     <path d="M 70.2 100.908562 
L 84.2 100.908562 
L 98.2 100.908562 
" style="fill: none; stroke: #008000; stroke-width: 1.5; stroke-linecap: square"/>
    </g>
    <g id="text_16">
     <!-- Asian -->
     <g transform="translate(109.4 105.808562) scale(0.14 -0.14)">
      <defs>
       <path id="DejaVuSans-41" d="M 2188 4044 
L 1331 1722 
L 3047 1722 
L 2188 4044 
z
M 1831 4666 
L 2547 4666 
L 4325 0 
L 3669 0 
L 3244 1197 
L 1141 1197 
L 716 0 
L 50 0 
L 1831 4666 
z
" transform="scale(0.015625)"/>
       <path id="DejaVuSans-73" d="M 2834 3397 
L 2834 2853 
Q 2591 2978 2328 3040 
Q 2066 3103 1784 3103 
Q 1356 3103 1142 2972 
Q 928 2841 928 2578 
Q 928 2378 1081 2264 
Q 1234 2150 1697 2047 
L 1894 2003 
Q 2506 1872 2764 1633 
Q 3022 1394 3022 966 
Q 3022 478 2636 193 
Q 2250 -91 1575 -91 
Q 1294 -91 989 -36 
Q 684 19 347 128 
L 347 722 
Q 666 556 975 473 
Q 1284 391 1588 391 
Q 1994 391 2212 530 
Q 2431 669 2431 922 
Q 2431 1156 2273 1281 
Q 2116 1406 1581 1522 
L 1381 1569 
Q 847 1681 609 1914 
Q 372 2147 372 2553 
Q 372 3047 722 3315 
Q 1072 3584 1716 3584 
Q 2034 3584 2315 3537 
Q 2597 3491 2834 3397 
z
" transform="scale(0.015625)"/>
       <path id="DejaVuSans-6e" d="M 3513 2113 
L 3513 0 
L 2938 0 
L 2938 2094 
Q 2938 2591 2744 2837 
Q 2550 3084 2163 3084 
Q 1697 3084 1428 2787 
Q 1159 2491 1159 1978 
L 1159 0 
L 581 0 
L 581 3500 
L 1159 3500 
L 1159 2956 
Q 1366 3272 1645 3428 
Q 1925 3584 2291 3584 
Q 2894 3584 3203 3211 
Q 3513 2838 3513 2113 
z
" transform="scale(0.015625)"/>
      </defs>
      <use xlink:href="#DejaVuSans-41"/>
      <use xlink:href="#DejaVuSans-73" x="68.408203"/>
      <use xlink:href="#DejaVuSans-69" x="120.507812"/>
      <use xlink:href="#DejaVuSans-61" x="148.291016"/>
      <use xlink:href="#DejaVuSans-6e" x="209.570312"/>
     </g>
    </g>
   </g>
  </g>
  <g id="text_17">
   <!-- California (Male) -->
   <g transform="translate(148.245313 22.108875) scale(0.2 -0.2)">
    <defs>
     <path id="DejaVuSans-43" d="M 4122 4306 
L 4122 3641 
Q 3803 3938 3442 4084 
Q 3081 4231 2675 4231 
Q 1875 4231 1450 3742 
Q 1025 3253 1025 2328 
Q 1025 1406 1450 917 
Q 1875 428 2675 428 
Q 3081 428 3442 575 
Q 3803 722 4122 1019 
L 4122 359 
Q 3791 134 3420 21 
Q 3050 -91 2638 -91 
Q 1578 -91 968 557 
Q 359 1206 359 2328 
Q 359 3453 968 4101 
Q 1578 4750 2638 4750 
Q 3056 4750 3426 4639 
Q 3797 4528 4122 4306 
z
" transform="scale(0.015625)"/>
     <path id="DejaVuSans-66" d="M 2375 4863 
L 2375 4384 
L 1825 4384 
Q 1516 4384 1395 4259 
Q 1275 4134 1275 3809 
L 1275 3500 
L 2222 3500 
L 2222 3053 
L 1275 3053 
L 1275 0 
L 697 0 
L 697 3053 
L 147 3053 
L 147 3500 
L 697 3500 
L 697 3744 
Q 697 4328 969 4595 
Q 1241 4863 1831 4863 
L 2375 4863 
z
" transform="scale(0.015625)"/>
     <path id="DejaVuSans-6f" d="M 1959 3097 
Q 1497 3097 1228 2736 
Q 959 2375 959 1747 
Q 959 1119 1226 758 
Q 1494 397 1959 397 
Q 2419 397 2687 759 
Q 2956 1122 2956 1747 
Q 2956 2369 2687 2733 
Q 2419 3097 1959 3097 
z
M 1959 3584 
Q 2709 3584 3137 3096 
Q 3566 2609 3566 1747 
Q 3566 888 3137 398 
Q 2709 -91 1959 -91 
Q 1206 -91 779 398 
Q 353 888 353 1747 
Q 353 2609 779 3096 
Q 1206 3584 1959 3584 
z
" transform="scale(0.015625)"/>
     <path id="DejaVuSans-28" d="M 1984 4856 
Q 1566 4138 1362 3434 
Q 1159 2731 1159 2009 
Q 1159 1288 1364 580 
Q 1569 -128 1984 -844 
L 1484 -844 
Q 1016 -109 783 600 
Q 550 1309 550 2009 
Q 550 2706 781 3412 
Q 1013 4119 1484 4856 
L 1984 4856 
z
" transform="scale(0.015625)"/>
     <path id="DejaVuSans-4d" d="M 628 4666 
L 1569 4666 
L 2759 1491 
L 3956 4666 
L 4897 4666 
L 4897 0 
L 4281 0 
L 4281 4097 
L 3078 897 
L 2444 897 
L 1241 4097 
L 1241 0 
L 628 0 
L 628 4666 
z
" transform="scale(0.015625)"/>
     <path id="DejaVuSans-29" d="M 513 4856 
L 1013 4856 
Q 1481 4119 1714 3412 
Q 1947 2706 1947 2009 
Q 1947 1309 1714 600 
Q 1481 -109 1013 -844 
L 513 -844 
Q 928 -128 1133 580 
Q 1338 1288 1338 2009 
Q 1338 2731 1133 3434 
Q 928 4138 513 4856 
z
" transform="scale(0.015625)"/>
    </defs>
    <use xlink:href="#DejaVuSans-43"/>
    <use xlink:href="#DejaVuSans-61" x="69.824219"/>
    <use xlink:href="#DejaVuSans-6c" x="131.103516"/>
    <use xlink:href="#DejaVuSans-69" x="158.886719"/>
    <use xlink:href="#DejaVuSans-66" x="186.669922"/>
    <use xlink:href="#DejaVuSans-6f" x="221.875"/>
    <use xlink:href="#DejaVuSans-72" x="283.056641"/>
    <use xlink:href="#DejaVuSans-6e" x="322.419922"/>
    <use xlink:href="#DejaVuSans-69" x="385.798828"/>
    <use xlink:href="#DejaVuSans-61" x="413.582031"/>
    <use xlink:href="#DejaVuSans-20" x="474.861328"/>
    <use xlink:href="#DejaVuSans-28" x="506.648438"/>
    <use xlink:href="#DejaVuSans-4d" x="545.662109"/>
    <use xlink:href="#DejaVuSans-61" x="631.941406"/>
    <use xlink:href="#DejaVuSans-6c" x="693.220703"/>
    <use xlink:href="#DejaVuSans-65" x="721.003906"/>
    <use xlink:href="#DejaVuSans-29" x="782.527344"/>
   </g>
  </g>
 </g>
 <defs>
  <clipPath id="pea4f0aaf14">
   <rect x="57.6" y="41.472" width="357.12" height="266.112"/>
  </clipPath>
 </defs>
</svg>
